<?xml version="1.0" encoding="UTF-8" standalone="no"?>
<svg
   style="fill-opacity:1; color-rendering:auto; color-interpolation:auto; text-rendering:auto; stroke:black; stroke-linecap:square; stroke-miterlimit:10; shape-rendering:auto; stroke-opacity:1; fill:black; stroke-dasharray:none; font-weight:normal; stroke-width:1; font-family:'Dialog'; font-style:normal; stroke-linejoin:miter; font-size:12px; stroke-dashoffset:0; image-rendering:auto;"
   width="958"
   height="434"
   version="1.1"
   id="svg71"
   sodipodi:docname="hhu.svg"
   inkscape:version="1.3.2 (091e20ef0f, 2023-11-25)"
   xmlns:inkscape="http://www.inkscape.org/namespaces/inkscape"
   xmlns:sodipodi="http://sodipodi.sourceforge.net/DTD/sodipodi-0.dtd"
   xmlns="http://www.w3.org/2000/svg"
   xmlns:svg="http://www.w3.org/2000/svg">
  <sodipodi:namedview
     id="namedview71"
     pagecolor="#505050"
     bordercolor="#eeeeee"
     borderopacity="1"
     inkscape:showpageshadow="0"
     inkscape:pageopacity="0"
     inkscape:pagecheckerboard="0"
     inkscape:deskcolor="#505050"
     inkscape:zoom="1.3640223"
     inkscape:cx="478.73119"
     inkscape:cy="139.66048"
     inkscape:window-width="1920"
     inkscape:window-height="1045"
     inkscape:window-x="0"
     inkscape:window-y="0"
     inkscape:window-maximized="1"
     inkscape:current-layer="svg71" />
  <!--Generated by the Batik Graphics2D SVG Generator-->
  <defs
     id="genericDefs" />
  <g
     id="g71">
    <defs
       id="defs1">
      <clipPath
         clipPathUnits="userSpaceOnUse"
         id="clipPath1">
        <path
           d="M0 0 L958 0 L958 434 L0 434 L0 0 Z"
           id="path1" />
      </clipPath>
    </defs>
    <g
       style="fill:white; stroke:white;"
       id="g1">
      <rect
         x="0"
         y="0"
         width="958"
         style="clip-path:url(#clipPath1); stroke:none;"
         height="434"
         clip-path="url(#clipPath1)"
         id="rect1" />
    </g>
    <g
       style="fill:white; text-rendering:optimizeSpeed; color-rendering:optimizeSpeed; image-rendering:optimizeSpeed; shape-rendering:crispEdges; stroke:white; color-interpolation:sRGB;"
       id="g2">
      <rect
         x="0"
         width="958"
         height="434"
         y="0"
         style="stroke:none;"
         id="rect2" />
      <path
         style="stroke:none;"
         d="M125 386 L867 386 L867 33 L125 33 Z"
         id="path2" />
    </g>
    <g
       style="fill:rgb(38,38,38); text-rendering:geometricPrecision; image-rendering:optimizeQuality; color-rendering:optimizeQuality; stroke-linejoin:round; stroke:rgb(38,38,38); color-interpolation:linearRGB; stroke-width:0.6667;"
       id="g5">
      <line
         y2="386"
         style="fill:none;"
         x1="125"
         x2="867"
         y1="386"
         id="line2" />
      <line
         y2="33"
         style="fill:none;"
         x1="125"
         x2="125"
         y1="386"
         id="line4" />
    </g>
    <g
       style="stroke-linecap:butt; text-rendering:geometricPrecision; color-rendering:optimizeQuality; image-rendering:optimizeQuality; stroke-linejoin:round; color-interpolation:linearRGB; stroke-width:1.3333;"
       id="g6">
      <path
         d="M125 333.9961 L126.855 333.9958 L128.71 333.9956 L130.565 333.9956 L132.42 333.9956 L134.275 333.9944 L136.13 333.994 L137.985 333.9956 L139.84 333.9963 L140.9638 333.9952 L142.0876 333.9947 L143.2115 333.9951 L144.3353 333.9954 L145.4591 333.995 L146.5829 333.9948 L147.7067 333.9949 L148.8306 333.9951 L150.2699 333.9946 L151.7092 333.9944 L153.1486 333.9949 L154.5879 333.9952 L156.235 333.9936 L157.882 333.9932 L159.5291 333.9953 L161.1761 333.9965 L161.3195 333.9963 L161.4628 333.9962 L161.606 333.9961 L161.7493 333.996 L161.8926 334.0497 L162.0359 333.9822 L162.1792 333.6493 L162.3225 333.1722 L162.5078 332.6046 L162.6931 332.0453 L162.8784 331.4936 L163.0637 330.9492 L163.5238 329.6245 L163.9838 328.3345 L164.4438 327.0736 L164.9039 325.8334 L165.4122 324.4772 L165.9204 323.1294 L166.4287 321.7809 L166.937 320.4186 L167.5613 318.7036 L168.1857 316.9221 L168.81 315.0412 L169.4344 313.0105 L170.1608 310.3656 L170.8872 307.3133 L171.6137 303.6366 L172.3401 298.9618 L172.6326 296.6772 L172.925 294.0815 L173.2175 291.0961 L173.5099 287.617 L173.8024 283.5069 L174.0948 278.5825 L174.3873 272.5783 L174.6797 265.1315 L175.0738 252.1881 L175.4678 233.5239 L175.8618 207.2028 L176.2559 173.1812 L176.4171 157.5923 L176.5783 142.1163 L176.7395 127.684 L176.9007 115.1079 L176.9875 109.3343 L177.0742 104.3368 L177.161 100.1317 L177.2478 96.6717 L177.3346 93.8684 L177.4214 91.688 L177.5081 90.074 L177.5949 88.912 L177.683 88.074 L177.7712 87.561 L177.8593 87.3324 L177.9474 87.3077 L178.04 87.4254 L178.1326 87.6954 L178.2252 88.1016 L178.3178 88.6034 L178.4255 89.2618 L178.5332 90.0186 L178.6409 90.8725 L178.7486 91.793 L178.875 92.9159 L179.0014 94.1274 L179.1279 95.4428 L179.2543 96.8168 L179.3866 98.2628 L179.519 99.79 L179.6514 101.4262 L179.7838 103.1071 L179.9107 104.7023 L180.0376 106.3594 L180.1645 108.1007 L180.2914 109.8743 L180.4155 111.5926 L180.5397 113.3569 L180.6638 115.1847 L180.7879 117.0358 L180.9128 118.8805 L181.0376 120.7605 L181.1625 122.6916 L181.2873 124.6386 L181.4132 126.5837 L181.5392 128.5551 L181.6651 130.567 L181.791 132.5886 L181.918 134.6053 L182.0449 136.6405 L182.1718 138.7063 L182.2988 140.7766 L182.4265 142.839 L182.5543 144.913 L182.6821 147.0089 L182.8099 149.105 L182.9381 151.186 L183.0663 153.2728 L183.1944 155.3739 L183.3226 157.4716 L183.4504 159.5413 L183.5781 161.6121 L183.7059 163.6906 L183.8336 165.7633 L183.9595 167.7864 L184.0853 169.8069 L184.2112 171.8298 L184.337 173.8453 L184.4583 175.772 L184.5796 177.6939 L184.7009 179.6141 L184.8222 181.5266 L184.9329 183.2603 L185.0436 184.9886 L185.1543 186.7127 L185.265 188.43 L185.3789 190.1866 L185.4928 191.9366 L185.6067 193.6815 L185.7206 195.4188 L185.8574 197.4915 L185.9942 199.555 L186.1311 201.6129 L186.2679 203.6596 L186.4221 205.9441 L186.5763 208.218 L186.7305 210.4866 L186.8847 212.7414 L187.0575 215.2406 L187.2303 217.7284 L187.4031 220.2119 L187.5759 222.6799 L187.7711 225.4364 L187.9663 228.1819 L188.1615 230.9248 L188.3568 233.6533 L188.5856 236.8257 L188.8145 239.9902 L189.0434 243.153 L189.2723 246.3128 L189.5203 249.7528 L189.7684 253.1956 L190.0164 256.6298 L190.2644 260.1037 L190.5124 263.6839 L190.7605 267.296 L191.0085 270.9145 L191.2565 274.6372 L191.4884 278.2977 L191.7203 282.0413 L191.9522 285.8507 L192.1841 289.8067 L192.4138 293.9452 L192.6435 298.2159 L192.8733 302.5892 L193.103 307.1138 L193.3414 312.0085 L193.5798 316.971 L193.8182 321.9034 L194.0565 326.7796 L194.3061 331.7733 L194.5556 336.4376 L194.8051 340.6281 L195.0546 344.3035 L195.2988 347.3954 L195.543 349.9365 L195.7872 351.9436 L196.0314 353.5008 L196.2727 354.6959 L196.514 355.5898 L196.7554 356.2365 L196.9967 356.7019 L197.2246 357.0254 L197.4525 357.2543 L197.6804 357.4093 L197.9083 357.5107 L198.1362 357.5742 L198.3642 357.6067 L198.5921 357.6151 L198.82 357.6059 L199.0584 357.5826 L199.2969 357.548 L199.5354 357.5045 L199.7738 357.4543 L200.029 357.3951 L200.2842 357.3311 L200.5394 357.2633 L200.7946 357.1924 L201.0834 357.1093 L201.3722 357.0235 L201.661 356.9352 L201.9498 356.8449 L202.291 356.736 L202.6322 356.6246 L202.9735 356.511 L203.3147 356.3952 L203.7387 356.2488 L204.1626 356.0994 L204.5865 355.9467 L205.0104 355.791 L205.5955 355.5723 L206.1805 355.3477 L206.7656 355.1165 L207.3506 354.8799 L208.0959 354.5728 L208.8412 354.256 L209.5865 353.9278 L210.3318 353.5909 L210.9777 353.2938 L211.6237 352.9898 L212.2696 352.6786 L212.9156 352.361 L213.5856 352.0255 L214.2556 351.683 L214.9256 351.3335 L215.5955 350.9775 L216.3366 350.5769 L217.0777 350.1686 L217.8188 349.7525 L218.5599 349.3293 L219.362 348.8642 L220.1641 348.3913 L220.9663 347.9107 L221.7684 347.4232 L222.647 346.8824 L223.5257 346.3344 L224.4043 345.7793 L225.2829 345.2182 L226.2833 344.5734 L227.2836 343.9224 L228.284 343.2658 L229.2844 342.6049 L230.5533 341.7627 L231.8223 340.9168 L233.0912 340.0689 L234.3602 339.2209 L235.4404 338.5 L236.5205 337.7813 L237.6007 337.066 L238.6809 336.3542 L239.7611 335.6459 L240.8413 334.9428 L241.9215 334.2459 L243.0017 333.5547 L244.1093 332.8509 L245.217 332.1543 L246.3246 331.4658 L247.4323 330.7839 L248.5692 330.0888 L249.7061 329.4013 L250.843 328.7224 L251.9798 328.049 L253.1565 327.3549 L254.3331 326.6669 L255.5098 325.986 L256.6864 325.3076 L257.9043 324.6026 L259.1221 323.8996 L260.3399 323.1992 L261.5578 322.4938 L262.8024 321.7586 L264.047 321.0158 L265.2916 320.2649 L266.5361 319.4921 L267.7749 318.6845 L269.0137 317.8474 L270.2525 316.976 L271.4913 316.0411 L272.6804 315.0492 L273.8694 313.9705 L275.0585 312.7816 L276.2475 311.4068 L277.3542 309.8639 L278.461 308.037 L279.5677 305.7938 L280.6744 302.8299 L281.375 300.3821 L282.0756 297.3182 L282.7762 293.3256 L283.4767 287.8996 L283.8586 284.0731 L284.2405 279.3741 L284.6224 273.4935 L285.0043 266.0135 L285.3862 256.4545 L285.768 243.8112 L286.1499 227.1481 L286.5318 205.9995 L286.6907 195.8813 L286.8497 185.1502 L287.0086 174.0521 L287.1676 162.9194 L287.3265 152.1415 L287.4854 142.1764 L287.6444 133.4001 L287.8033 126.0228 L287.9105 121.876 L288.0177 118.4171 L288.1249 115.6295 L288.2321 113.4463 L288.3393 111.7803 L288.4464 110.6 L288.5536 109.8578 L288.6608 109.4709 L288.7723 109.3598 L288.8838 109.5281 L288.9953 109.9436 L289.1068 110.5505 L289.2287 111.3755 L289.3506 112.3678 L289.4724 113.5121 L289.5943 114.7724 L289.734 116.3153 L289.8736 117.9786 L290.0133 119.7604 L290.1529 121.6251 L290.303 123.6781 L290.453 125.8167 L290.6031 128.0506 L290.7531 130.3377 L290.9009 132.602 L291.0488 134.9185 L291.1966 137.2983 L291.3445 139.7062 L291.4886 142.0479 L291.6328 144.4185 L291.777 146.8268 L291.9211 149.2471 L292.0634 151.6217 L292.2057 154.0099 L292.3479 156.4189 L292.4902 158.8292 L292.6305 161.1893 L292.7708 163.5524 L292.9112 165.9243 L293.0515 168.2909 L293.1882 170.579 L293.325 172.8633 L293.4617 175.1479 L293.5985 177.4235 L293.7277 179.5566 L293.8568 181.6825 L293.9861 183.8032 L294.1152 185.9139 L294.2239 187.6789 L294.3327 189.437 L294.4414 191.1887 L294.5501 192.9325 L294.6918 195.1902 L294.8336 197.4355 L294.9753 199.6711 L295.117 201.8924 L295.2792 204.4108 L295.4415 206.9131 L295.6038 209.4041 L295.7661 211.8763 L295.9507 214.6563 L296.1353 217.4172 L296.3199 220.1658 L296.5046 222.8922 L296.7166 225.985 L296.9287 229.057 L297.1408 232.116 L297.3528 235.1531 L297.6112 238.8233 L297.8696 242.4722 L298.128 246.1011 L298.3864 249.7253 L298.6292 253.1547 L298.8721 256.585 L299.1149 260.0069 L299.3577 263.4666 L299.6006 267.0193 L299.8434 270.6124 L300.0863 274.2329 L300.3291 277.9495 L300.5747 281.8798 L300.8202 285.9116 L301.0658 290.0273 L301.3113 294.3015 L301.5583 298.8308 L301.8053 303.496 L302.0523 308.2512 L302.2993 313.1262 L302.5548 318.3068 L302.8103 323.4548 L303.0659 328.438 L303.3214 333.1929 L303.5871 337.8167 L303.8528 341.9286 L304.1184 345.4319 L304.3841 348.3351 L304.6367 350.5907 L304.8893 352.371 L305.142 353.7295 L305.3946 354.7531 L305.6736 355.5991 L305.9525 356.1955 L306.2315 356.5962 L306.5104 356.8628 L306.7683 357.0314 L307.0262 357.1372 L307.2841 357.1947 L307.542 357.2179 L307.7795 357.2179 L308.0169 357.2011 L308.2543 357.171 L308.4918 357.1307 L308.7444 357.0796 L308.9971 357.0215 L309.2498 356.9576 L309.5025 356.8893 L309.7846 356.809 L310.0667 356.7249 L310.3489 356.6377 L310.631 356.5479 L310.9608 356.4401 L311.2906 356.3296 L311.6204 356.2166 L311.9502 356.1013 L312.3539 355.9575 L312.7577 355.8106 L313.1614 355.6607 L313.5651 355.5079 L314.0995 355.302 L314.6339 355.0912 L315.1684 354.8751 L315.7028 354.6544 L316.3274 354.3915 L316.952 354.122 L317.5766 353.8455 L318.2012 353.5627 L318.8258 353.2746 L319.4504 352.9803 L320.075 352.6793 L320.6996 352.3722 L321.4086 352.0172 L322.1177 351.6545 L322.8267 351.2838 L323.5358 350.9058 L324.2814 350.5014 L325.027 350.0893 L325.7727 349.6693 L326.5183 349.2422 L327.3182 348.777 L328.1181 348.3042 L328.918 347.8238 L329.7179 347.3367 L330.6003 346.7926 L331.4827 346.2412 L332.3651 345.683 L333.2475 345.1187 L334.2568 344.4675 L335.2661 343.8102 L336.2754 343.1474 L337.2846 342.4805 L338.5773 341.6226 L339.87 340.7614 L341.1627 339.8985 L342.4554 339.036 L343.1285 338.5876 L343.8016 338.14 L344.4748 337.6935 L345.1479 337.2483 L345.6032 336.9479 L346.0584 336.6482 L346.5137 336.3492 L346.969 336.0511 L347.4242 335.5909 L347.8795 335.511 L348.3347 336.235 L348.79 337.3421 L349.1905 338.1403 L349.5911 338.8731 L349.9916 339.5462 L350.3922 340.1646 L350.8062 340.7512 L351.2202 341.2881 L351.6343 341.7791 L352.0483 342.2276 L352.5594 342.7271 L353.0706 343.1717 L353.5817 343.5659 L354.0927 343.9141 L354.7997 344.3273 L355.5066 344.6694 L356.2134 344.9488 L356.9203 345.1728 L357.6779 345.3584 L358.4354 345.4946 L359.1929 345.5878 L359.9504 345.643 L360.7254 345.6649 L361.5004 345.6564 L362.2754 345.6211 L363.0504 345.5623 L363.9773 345.4653 L364.9041 345.343 L365.831 345.1993 L366.7579 345.0372 L367.9045 344.8152 L369.0511 344.5737 L370.1977 344.3164 L371.3443 344.0462 L372.609 343.7362 L373.8737 343.4168 L375.1384 343.091 L376.4031 342.7603 L377.5428 342.459 L378.6825 342.1566 L379.8222 341.8545 L380.9619 341.5528 L381.9791 341.2841 L382.9962 341.017 L384.0133 340.7522 L385.0305 340.4896 L386.0804 340.2209 L387.1303 339.9554 L388.1802 339.6936 L389.2302 339.4355 L390.391 339.154 L391.5518 338.8778 L392.7127 338.6072 L393.8735 338.3421 L395.0851 338.0706 L396.2968 337.8057 L397.5084 337.548 L398.72 337.2968 L399.9239 337.0529 L401.1277 336.8163 L402.3315 336.5872 L403.5353 336.365 L404.7366 336.1493 L405.938 335.941 L407.1393 335.7406 L408.3407 335.5473 L409.5752 335.3551 L410.8096 335.1711 L412.0441 334.9956 L413.2785 334.8277 L414.5606 334.6603 L415.8427 334.5018 L417.1248 334.3527 L418.4069 334.2118 L418.9198 334.1574 L419.4326 334.1044 L419.9455 334.0528 L420.4584 334.0026 L420.9712 333.9914 L421.4841 333.8955 L421.9969 333.6148 L422.5098 333.2392 L423.1281 332.8297 L423.7464 332.4345 L424.3646 332.0521 L424.9829 331.6801 L425.6193 331.3056 L426.2557 330.9401 L426.8921 330.583 L427.5284 330.2333 L428.3746 329.7781 L429.2208 329.3341 L430.067 328.9009 L430.9132 328.4771 L431.9427 327.9713 L432.9721 327.4777 L434.0016 326.9961 L435.031 326.5239 L436.1892 325.9997 L437.3474 325.4865 L438.5057 324.9853 L439.6639 324.4908 L440.8574 323.9822 L442.0509 323.4816 L443.2443 322.9908 L444.4378 322.5019 L445.6146 322.0133 L446.7913 321.5284 L447.968 321.0493 L449.1448 320.5654 L450.2921 320.0782 L451.4394 319.5879 L452.5866 319.0962 L453.7339 318.5888 L454.8545 318.0632 L455.975 317.5206 L457.0956 316.9605 L458.2162 316.3606 L458.7013 316.0467 L459.1865 315.8037 L459.6717 315.7251 L460.1569 315.7271 L460.642 315.6929 L461.1272 315.6516 L461.6124 315.6069 L462.0975 315.5642 L462.7637 315.5168 L463.4298 315.4834 L464.0959 315.4677 L464.7621 315.4769 L465.6198 315.5354 L466.4775 315.6507 L467.3352 315.832 L468.1929 316.0918 L469.4415 316.6349 L470.6901 317.4014 L471.9388 318.4191 L473.1874 319.7076 L474.4771 321.3281 L475.7669 323.2036 L477.0567 325.2698 L478.3464 327.4457 L479.6362 329.6274 L480.926 331.7188 L482.2158 333.6505 L483.5055 335.3702 L484.1597 336.1521 L484.8138 336.8746 L485.468 337.5385 L486.1222 338.1446 L486.7763 338.6947 L487.4305 339.1919 L488.0847 339.6392 L488.7388 340.0392 L489.4557 340.4265 L490.1725 340.7648 L490.8893 341.058 L491.6061 341.3094 L492.3624 341.5331 L493.1187 341.7182 L493.875 341.8682 L494.6314 341.9863 L495.4795 342.0842 L496.3276 342.1496 L497.1758 342.1859 L498.0239 342.1963 L499.0107 342.1791 L499.9975 342.1346 L500.9843 342.0661 L501.9711 341.9767 L503.148 341.8462 L504.325 341.694 L505.5019 341.5236 L506.6788 341.3377 L508.0229 341.1097 L509.367 340.8687 L510.7111 340.6178 L512.0552 340.359 L513.3406 340.1053 L514.6261 339.8483 L515.9116 339.5901 L517.197 339.3307 L518.3177 339.1035 L519.4385 338.8775 L520.5593 338.6533 L521.6801 338.4307 L522.7581 338.218 L523.836 338.008 L524.914 337.801 L525.992 337.5969 L527.1801 337.3751 L528.3682 337.1578 L529.5563 336.9455 L530.7445 336.7377 L532.0426 336.5157 L533.3407 336.3001 L534.6388 336.0918 L535.9369 335.8898 L537.2383 335.6928 L538.5398 335.5034 L539.8412 335.3222 L541.1427 335.148 L542.3908 334.9863 L543.6389 334.8319 L544.887 334.6856 L546.1351 334.5459 L547.3673 334.4135 L548.5995 334.2884 L549.8317 334.1711 L551.0639 334.0605 L552.3469 333.9512 L553.6299 333.8499 L554.913 333.7568 L556.196 333.6708 L557.5461 333.5867 L558.8962 333.511 L560.2462 333.4444 L561.5963 333.3851 L562.9603 333.331 L564.3244 333.285 L565.6884 333.2479 L567.0525 333.2173 L567.4654 333.209 L567.8782 333.2013 L568.2911 333.1942 L568.704 333.1878 L569.1168 333.2038 L569.5297 333.2463 L569.9426 333.1989 L570.3555 332.8265 L570.7531 332.2168 L571.1507 331.625 L571.5483 331.0488 L571.9459 330.4856 L572.4539 329.7814 L572.9618 329.0926 L573.4697 328.4167 L573.9777 327.7504 L574.5975 326.9456 L575.2173 326.1476 L575.8371 325.3531 L576.457 324.5569 L577.218 323.5685 L577.979 322.5632 L578.74 321.5325 L579.501 320.4626 L580.399 319.1258 L581.297 317.6895 L582.1951 316.1183 L583.0931 314.3504 L584.0917 312.0357 L585.0903 309.2443 L586.0889 305.6829 L587.0876 300.7805 L587.392 298.89 L587.6964 296.7442 L588.0009 294.2831 L588.3053 291.4284 L588.6098 288.0771 L588.9142 284.095 L589.2186 279.289 L589.5231 273.3946 L589.8472 265.5445 L590.1712 255.4127 L590.4953 242.1332 L590.8193 224.712 L590.9335 217.3889 L591.0476 209.3861 L591.1617 200.7005 L591.2759 191.363 L591.39 181.4445 L591.5042 171.0836 L591.6183 160.4788 L591.7324 149.8819 L591.8799 136.6523 L592.0273 124.6232 L592.1747 114.3597 L592.3221 106.0903 L592.4086 102.1668 L592.4949 98.9281 L592.5812 96.3391 L592.6677 94.3135 L592.754 92.7491 L592.8404 91.6117 L592.9268 90.8519 L593.0131 90.3844 L593.1056 90.117 L593.1981 90.0797 L593.2906 90.2446 L593.3831 90.5541 L593.4851 91.0049 L593.5871 91.5806 L593.689 92.2719 L593.791 93.0456 L593.9114 94.0242 L594.0319 95.0993 L594.1523 96.2756 L594.2728 97.5187 L594.4073 98.9384 L594.5418 100.4471 L594.6764 102.067 L594.8109 103.7415 L594.9434 105.3872 L595.0759 107.1034 L595.2084 108.9137 L595.3409 110.7623 L595.4689 112.5331 L595.5968 114.3548 L595.7247 116.2452 L595.8527 118.1621 L595.98 120.0556 L596.1074 121.9865 L596.2347 123.9701 L596.3621 125.9714 L596.4902 127.9689 L596.6185 129.9937 L596.7466 132.0591 L596.8749 134.1351 L597.0038 136.2047 L597.1329 138.2928 L597.2619 140.411 L597.3909 142.5338 L597.5206 144.6461 L597.6503 146.7695 L597.7799 148.9136 L597.9095 151.0576 L598.0394 153.1829 L598.1691 155.313 L598.299 157.4561 L598.4288 159.5952 L598.5577 161.7006 L598.6867 163.806 L598.8157 165.9176 L598.9446 168.0228 L599.071 170.0681 L599.1975 172.1098 L599.3239 174.1525 L599.4503 176.1874 L599.5709 178.1123 L599.6913 180.0316 L599.8119 181.948 L599.9324 183.8565 L600.0383 185.5222 L600.1441 187.1824 L600.2499 188.8379 L600.3558 190.4871 L600.4797 192.4058 L600.6035 194.3166 L600.7274 196.2216 L600.8513 198.1173 L600.9954 200.3044 L601.1394 202.4812 L601.2834 204.6519 L601.4275 206.8099 L601.5897 209.2153 L601.752 211.6089 L601.9141 213.9969 L602.0763 216.3699 L602.2586 219.0067 L602.4409 221.6313 L602.6232 224.2514 L602.8054 226.8554 L603.0138 229.7999 L603.2222 232.7336 L603.4305 235.6645 L603.6389 238.5831 L603.8939 242.1417 L604.149 245.6936 L604.4041 249.2381 L604.6592 252.7972 L604.8922 256.0929 L605.1251 259.4039 L605.3581 262.7198 L605.5911 266.0911 L605.824 269.5764 L606.0569 273.1182 L606.29 276.7025 L606.5229 280.4011 L606.7578 284.321 L606.9926 288.3578 L607.2274 292.4923 L607.4622 296.799 L607.6984 301.3739 L607.9346 306.0906 L608.1707 310.8964 L608.4069 315.8173 L608.65 321.0096 L608.8932 326.1463 L609.1363 331.0881 L609.3795 335.7708 L609.6304 340.2584 L609.8813 344.2192 L610.1323 347.5684 L610.3832 350.3266 L610.6221 352.464 L610.8608 354.1461 L611.0996 355.4274 L611.3383 356.3939 L611.6068 357.2099 L611.8752 357.786 L612.1436 358.1743 L612.412 358.4365 L612.6578 358.6068 L612.9034 358.7198 L613.1491 358.7892 L613.3949 358.8277 L613.622 358.8445 L613.8492 358.8462 L614.0763 358.8361 L614.3034 358.8173 L614.5441 358.7902 L614.7847 358.7572 L615.0253 358.7194 L615.2661 358.678 L615.5333 358.6287 L615.8006 358.5766 L616.0678 358.5219 L616.3351 358.4654 L616.6453 358.3978 L616.9555 358.3282 L617.2657 358.2568 L617.5759 358.1839 L617.9514 358.0938 L618.3269 358.0017 L618.7024 357.9077 L619.0779 357.8118 L619.5598 357.6864 L620.0416 357.5581 L620.5234 357.4266 L621.0052 357.2922 L621.7487 357.0808 L622.4921 356.862 L623.2356 356.6343 L623.979 356.3999 L624.6718 356.1773 L625.3646 355.9484 L626.0574 355.7128 L626.7501 355.4712 L627.4096 355.2364 L628.069 354.9962 L628.7285 354.7503 L629.388 354.4992 L630.103 354.2215 L630.8179 353.9377 L631.5329 353.6476 L632.2479 353.3517 L633.0246 353.0241 L633.8013 352.6899 L634.5781 352.349 L635.3549 352.0018 L636.1886 351.6228 L637.0223 351.2371 L637.8561 350.8447 L638.6899 350.4462 L639.6016 350.0042 L640.5134 349.5557 L641.4252 349.1008 L642.337 348.6404 L643.387 348.1043 L644.437 347.5621 L645.4871 347.0144 L646.5372 346.4622 L647.6226 345.8877 L648.7081 345.31 L649.7936 344.73 L650.8791 344.1485 L651.9645 343.5662 L653.05 342.9841 L654.1355 342.4032 L655.221 341.8238 L656.2352 341.284 L657.2494 340.7469 L658.2635 340.2132 L659.2776 339.6829 L660.2756 339.1644 L661.2736 338.6502 L662.2715 338.141 L663.2694 337.6364 L664.3156 337.1123 L665.3617 336.5944 L666.4078 336.0832 L667.454 335.5782 L668.5466 335.0568 L669.6392 334.543 L670.7319 334.0375 L671.8244 333.5394 L672.9525 333.0317 L674.0806 332.5327 L675.2086 332.043 L676.3368 331.5612 L677.5014 331.0704 L678.6661 330.589 L679.8308 330.1177 L680.9955 329.6546 L682.1987 329.1826 L683.4018 328.7204 L684.605 328.2692 L685.8082 327.8264 L687.0442 327.3771 L688.2802 326.9384 L689.5162 326.5118 L690.7521 326.0937 L692.0079 325.6739 L693.2635 325.2656 L694.5192 324.871 L695.7749 324.4855 L697.0334 324.1038 L698.2919 323.7352 L699.5504 323.3829 L700.8089 323.0414 L702.0554 322.7084 L703.3018 322.3916 L704.5482 322.0952 L705.7947 321.8127 L707.0215 321.543 L708.2482 321.2946 L709.475 321.0725 L710.7018 320.8706 L711.9102 320.6863 L713.1187 320.5313 L714.3272 320.4118 L715.5357 320.3221 L716.734 320.2585 L717.9324 320.2358 L719.1308 320.2607 L720.3291 320.3281 L721.5296 320.4348 L722.7302 320.5952 L723.9307 320.8143 L725.1312 321.0864 L726.3553 321.4129 L727.5795 321.798 L728.8035 322.2409 L730.0276 322.7311 L731.3002 323.2794 L732.5729 323.8657 L733.8455 324.481 L735.118 325.1082 L736.4221 325.7454 L737.7263 326.3718 L739.0303 326.9774 L740.3345 327.5459 L741.554 328.032 L742.7735 328.476 L743.993 328.8763 L745.2125 329.2262 L746.3191 329.4964 L747.4257 329.7269 L748.5322 329.9195 L749.6389 330.0733 L750.7586 330.1899 L751.8784 330.2719 L752.9981 330.3223 L754.1179 330.3421 L755.3735 330.3299 L756.6292 330.2865 L757.8848 330.2159 L759.1404 330.1198 L760.5707 329.9817 L762.001 329.8196 L763.4313 329.6381 L764.8616 329.4385 L766.382 329.2071 L767.9025 328.9642 L769.423 328.7149 L770.9435 328.4571 L772.345 328.2093 L773.7464 327.9616 L775.1478 327.7184 L776.5493 327.4743 L777.7755 327.2566 L779.0017 327.0432 L780.228 326.8365 L781.4542 326.633 L782.6452 326.4362 L783.8362 326.2455 L785.0272 326.0627 L786.2182 325.8858 L787.5292 325.696 L788.8403 325.5165 L790.1513 325.3493 L791.4623 325.1922 L792.8928 325.0294 L794.3233 324.8832 L795.7537 324.757 L797.1842 324.6458 L798.579 324.5467 L799.9739 324.468 L801.3687 324.4142 L802.7635 324.3767 L804.0189 324.3508 L805.2743 324.3434 L806.5298 324.3573 L807.7852 324.3854 L808.967 324.4203 L810.1489 324.4703 L811.3307 324.5365 L812.5126 324.6146 L813.7661 324.7068 L815.0197 324.8126 L816.2733 324.932 L817.5268 325.0609 L818.9263 325.2113 L820.3259 325.372 L821.7255 325.5422 L823.1249 325.7155 L824.5715 325.8912 L826.018 326.0686 L827.4646 326.248 L828.9111 326.4203 L830.2358 326.5648 L831.5605 326.7041 L832.8852 326.8393 L834.2098 326.9631 L835.4072 327.0604 L836.6045 327.1497 L837.8018 327.2319 L838.9991 327.3035 L840.2142 327.3629 L841.4292 327.4125 L842.6443 327.4533 L843.8594 327.4835 L845.2236 327.5032 L846.5878 327.5117 L847.952 327.5105 L849.3162 327.498 L850.8055 327.4694 L852.2949 327.4315 L853.7842 327.3869 L855.2735 327.3323 L856.7122 327.2667 L858.1508 327.1973 L859.5895 327.1278 L861.0281 327.0524 L862.3068 326.9764 L863.5853 326.9005 L864.864 326.8273 L866.1425 326.7523 L866.3569 326.7391 L866.5712 326.7259 L866.7856 326.7127 L867 326.6995"
         style="fill:none; fill-rule:evenodd;"
         id="path5" />
    </g>
    <g
       transform="translate(859.58,386)"
       style="font-size:40px; text-rendering:geometricPrecision; color-rendering:optimizeQuality; image-rendering:optimizeQuality; font-family:'mwa_cmmi10'; color-interpolation:linearRGB;"
       id="g7">
      <path
         style="stroke:none;"
         d="M2.4844 30.3499 Q2.4844 29.7717 2.5938 29.2405 L5.4844 17.7561 L1.2969 17.7561 Q0.875 17.7561 0.875 17.2249 Q1.0312 16.3499 1.4062 16.3499 L5.8438 16.3499 L7.4375 9.8342 Q7.5938 9.303 8.0625 8.928 Q8.5312 8.553 9.125 8.553 Q9.625 8.553 9.9688 8.8577 Q10.3125 9.1624 10.3125 9.678 Q10.3125 9.7874 10.3047 9.8577 Q10.2969 9.928 10.2812 10.0061 L8.6719 16.3499 L12.7969 16.3499 Q13.2031 16.3499 13.2031 16.8811 Q13.1875 16.9749 13.125 17.2092 Q13.0625 17.4436 12.9688 17.5999 Q12.875 17.7561 12.6719 17.7561 L8.3281 17.7561 L5.4531 29.3186 Q5.1562 30.4592 5.1562 31.2717 Q5.1562 32.9905 6.3281 32.9905 Q8.0938 32.9905 9.4453 31.342 Q10.7969 29.6936 11.5312 27.7249 Q11.6875 27.4905 11.8438 27.4905 L12.3281 27.4905 Q12.4844 27.4905 12.5781 27.592 Q12.6719 27.6936 12.6719 27.8342 Q12.6719 27.9124 12.6406 27.9592 Q11.7656 30.3811 10.0859 32.217 Q8.4062 34.053 6.2344 34.053 Q4.6562 34.053 3.5703 33.0139 Q2.4844 31.9749 2.4844 30.3499 Z"
         id="path6" />
    </g>
    <g
       transform="translate(50.8,61.1233)"
       style="font-size:40px; text-rendering:geometricPrecision; color-rendering:optimizeQuality; image-rendering:optimizeQuality; font-family:'mwa_cmmi10'; color-interpolation:linearRGB;"
       id="g10">
      <path
         style="stroke:none;"
         d="M4.2344 -18.7595 Q4.2344 -20.072 4.5859 -21.447 Q4.9375 -22.822 5.5781 -24.5095 Q6.2188 -26.197 6.6875 -27.447 Q7.2031 -28.9158 7.2031 -29.8533 Q7.2031 -31.0408 6.3281 -31.0408 Q4.75 -31.0408 3.7266 -29.408 Q2.7031 -27.7751 2.2031 -25.7751 Q2.125 -25.5095 1.875 -25.5095 L1.4062 -25.5095 Q1.0781 -25.5095 1.0781 -25.8845 L1.0781 -26.0095 Q1.7188 -28.3845 3.0469 -30.2283 Q4.375 -32.072 6.4062 -32.072 Q7.8281 -32.072 8.8203 -31.1345 Q9.8125 -30.197 9.8125 -28.7595 Q9.8125 -28.0095 9.4688 -27.197 Q9.2969 -26.7126 8.6719 -25.072 Q8.0469 -23.4314 7.7188 -22.3533 Q7.3906 -21.2751 7.1719 -20.2439 Q6.9531 -19.2126 6.9531 -18.1658 Q6.9531 -16.8376 7.5234 -15.9236 Q8.0938 -15.0095 9.3594 -15.0095 Q11.9219 -15.0095 13.8438 -18.1658 Q13.8906 -18.322 13.9219 -18.4705 Q13.9531 -18.6189 13.9688 -18.7595 L16.8438 -30.3533 Q16.9688 -30.8845 17.4609 -31.2673 Q17.9531 -31.6501 18.5156 -31.6501 Q19 -31.6501 19.3672 -31.3376 Q19.7344 -31.0251 19.7344 -30.5095 Q19.7344 -30.2751 19.6875 -30.197 L16.7969 -18.6814 Q16.5312 -17.4939 16.5312 -16.7283 Q16.5312 -15.0095 17.6719 -15.0095 Q18.9688 -15.0095 19.6016 -16.6033 Q20.2344 -18.197 20.6875 -20.2751 Q20.7656 -20.5095 21 -20.5095 L21.4844 -20.5095 Q21.6406 -20.5095 21.7422 -20.3767 Q21.8438 -20.2439 21.8438 -20.1189 Q21.4062 -18.4001 21.0078 -17.1736 Q20.6094 -15.947 19.75 -14.947 Q18.8906 -13.947 17.5938 -13.947 Q16.3281 -13.947 15.3203 -14.6423 Q14.3125 -15.3376 13.9688 -16.5251 Q13.0469 -15.3533 11.8359 -14.6501 Q10.625 -13.947 9.2812 -13.947 Q6.9688 -13.947 5.6016 -15.2126 Q4.2344 -16.4783 4.2344 -18.7595 Z"
         id="path7" />
      <path
         style="stroke:none;"
         d="M35.3046 -4.4783 Q33.0702 -6.2283 31.4608 -8.5095 Q29.8514 -10.7908 28.828 -13.3689 Q27.8046 -15.947 27.2968 -18.7595 Q26.7889 -21.572 26.7889 -24.4001 Q26.7889 -27.2751 27.2968 -30.0876 Q27.8046 -32.9001 28.8514 -35.4939 Q29.8983 -38.0876 31.5155 -40.3533 Q33.1327 -42.6189 35.3046 -44.322 Q35.3046 -44.4001 35.4921 -44.4001 L35.8671 -44.4001 Q35.9921 -44.4001 36.0858 -44.2908 Q36.1796 -44.1814 36.1796 -44.0564 Q36.1796 -43.8689 36.1014 -43.7908 Q34.1483 -41.8845 32.8514 -39.697 Q31.5546 -37.5095 30.7655 -35.0408 Q29.9764 -32.572 29.6249 -29.9236 Q29.2733 -27.2751 29.2733 -24.4001 Q29.2733 -11.6814 36.0702 -5.0876 Q36.1796 -4.9626 36.1796 -4.7439 Q36.1796 -4.6501 36.0702 -4.5251 Q35.9608 -4.4001 35.8671 -4.4001 L35.4921 -4.4001 Q35.3046 -4.4001 35.3046 -4.4783 Z"
         id="path8" />
      <path
         style="stroke:none;"
         d="M40.9383 -17.6501 Q40.9383 -18.2283 41.0477 -18.7595 L43.9383 -30.2439 L39.7508 -30.2439 Q39.3289 -30.2439 39.3289 -30.7751 Q39.4852 -31.6501 39.8602 -31.6501 L44.2977 -31.6501 L45.8914 -38.1658 Q46.0477 -38.697 46.5164 -39.072 Q46.9852 -39.447 47.5789 -39.447 Q48.0789 -39.447 48.4227 -39.1423 Q48.7664 -38.8376 48.7664 -38.322 Q48.7664 -38.2126 48.7586 -38.1423 Q48.7508 -38.072 48.7352 -37.9939 L47.1258 -31.6501 L51.2508 -31.6501 Q51.657 -31.6501 51.657 -31.1189 Q51.6414 -31.0251 51.5789 -30.7908 Q51.5164 -30.5564 51.4227 -30.4001 Q51.3289 -30.2439 51.1258 -30.2439 L46.782 -30.2439 L43.907 -18.6814 Q43.6102 -17.5408 43.6102 -16.7283 Q43.6102 -15.0095 44.782 -15.0095 Q46.5477 -15.0095 47.8992 -16.658 Q49.2508 -18.3064 49.9852 -20.2751 Q50.1414 -20.5095 50.2977 -20.5095 L50.782 -20.5095 Q50.9383 -20.5095 51.032 -20.408 Q51.1258 -20.3064 51.1258 -20.1658 Q51.1258 -20.0876 51.0945 -20.0408 Q50.2195 -17.6189 48.5399 -15.783 Q46.8602 -13.947 44.6883 -13.947 Q43.1102 -13.947 42.0242 -14.9861 Q40.9383 -16.0251 40.9383 -17.6501 Z"
         id="path9" />
      <path
         style="stroke:none;"
         d="M55.4921 -4.4001 Q55.1484 -4.4001 55.1484 -4.7439 Q55.1484 -4.9314 55.2265 -5.0095 Q62.0546 -11.6814 62.0546 -24.4001 Q62.0546 -37.1189 55.3046 -43.7126 Q55.1484 -43.822 55.1484 -44.0564 Q55.1484 -44.1814 55.2578 -44.2908 Q55.3671 -44.4001 55.4921 -44.4001 L55.8671 -44.4001 Q55.9921 -44.4001 56.0703 -44.322 Q58.9296 -42.0564 60.8437 -38.8142 Q62.7578 -35.572 63.6484 -31.9001 Q64.539 -28.2283 64.539 -24.4001 Q64.539 -21.572 64.0624 -18.8298 Q63.5859 -16.0876 62.539 -13.4158 Q61.4921 -10.7439 59.8906 -8.4861 Q58.289 -6.2283 56.0703 -4.4783 Q55.9921 -4.4001 55.8671 -4.4001 L55.4921 -4.4001 Z"
         id="path10" />
    </g>
    <g
       style="stroke-linecap:butt; text-rendering:geometricPrecision; color-rendering:optimizeQuality; image-rendering:optimizeQuality; stroke-linejoin:round; color-interpolation:linearRGB; stroke-width:1.6;"
       id="g12">
      <line
         y2="386.26"
         style="fill:none;"
         x1="105.38"
         x2="858.3233"
         y1="386.26"
         id="line10" />
      <path
         d="M853.6566 381.26 L866.99 386.26 L858.3233 386.26 L853.6566 381.26 Z"
         style="fill:none; stroke-width:0.6667; fill-rule:evenodd;"
         id="path11" />
      <path
         d="M866.99 386.26 L853.6566 391.26 L858.3233 386.26 L866.99 386.26 Z"
         style="fill:none; stroke-width:0.6667; fill-rule:evenodd;"
         id="path12" />
    </g>
    <g
       style="text-rendering:optimizeSpeed; shape-rendering:crispEdges; color-interpolation:sRGB; color-rendering:optimizeSpeed; image-rendering:optimizeSpeed;"
       id="g13">
      <path
         style="stroke:none;"
         d="M866.99 386.26 L853.6566 381.26 L858.3233 386.26 L853.6566 391.26 Z"
         id="path13" />
    </g>
    <g
       style="stroke-linecap:butt; text-rendering:geometricPrecision; color-rendering:optimizeQuality; image-rendering:optimizeQuality; stroke-linejoin:round; color-interpolation:linearRGB; stroke-width:1.6;"
       id="g15">
      <line
         y2="41.2167"
         style="fill:none;"
         x1="124.54"
         x2="124.54"
         y1="407.96"
         id="line13" />
      <path
         d="M119.54 45.8833 L124.54 32.55 L124.54 41.2167 L119.54 45.8833 Z"
         style="fill:none; stroke-width:0.6667; fill-rule:evenodd;"
         id="path14" />
      <path
         d="M124.54 32.55 L129.54 45.8833 L124.54 41.2167 L124.54 32.55 Z"
         style="fill:none; stroke-width:0.6667; fill-rule:evenodd;"
         id="path15" />
    </g>
    <g
       style="text-rendering:optimizeSpeed; shape-rendering:crispEdges; color-interpolation:sRGB; color-rendering:optimizeSpeed; image-rendering:optimizeSpeed;"
       id="g16">
      <path
         style="stroke:none;"
         d="M124.54 32.55 L119.54 45.8833 L124.54 41.2167 L129.54 45.8833 Z"
         id="path16" />
    </g>
    <g
       style="stroke-linecap:butt; text-rendering:geometricPrecision; color-rendering:optimizeQuality; image-rendering:optimizeQuality; stroke-linejoin:round; color-interpolation:linearRGB; stroke-width:1.6;"
       id="g18">
      <line
         y2="386.26"
         style="fill:none;"
         x1="105.38"
         x2="858.3233"
         y1="386.26"
         id="line16" />
      <path
         d="M853.6566 381.26 L866.99 386.26 L858.3233 386.26 L853.6566 381.26 Z"
         style="fill:none; stroke-width:0.6667; fill-rule:evenodd;"
         id="path17" />
      <path
         d="M866.99 386.26 L853.6566 391.26 L858.3233 386.26 L866.99 386.26 Z"
         style="fill:none; stroke-width:0.6667; fill-rule:evenodd;"
         id="path18" />
    </g>
    <g
       style="text-rendering:optimizeSpeed; shape-rendering:crispEdges; color-interpolation:sRGB; color-rendering:optimizeSpeed; image-rendering:optimizeSpeed;"
       id="g19">
      <path
         style="stroke:none;"
         d="M866.99 386.26 L853.6566 381.26 L858.3233 386.26 L853.6566 391.26 Z"
         id="path19" />
    </g>
    <g
       style="stroke-linecap:butt; text-rendering:geometricPrecision; color-rendering:optimizeQuality; image-rendering:optimizeQuality; stroke-linejoin:round; color-interpolation:linearRGB; stroke-width:1.6;"
       id="g21">
      <line
         y2="41.2167"
         style="fill:none;"
         x1="124.54"
         x2="124.54"
         y1="407.96"
         id="line19" />
      <path
         d="M119.54 45.8833 L124.54 32.55 L124.54 41.2167 L119.54 45.8833 Z"
         style="fill:none; stroke-width:0.6667; fill-rule:evenodd;"
         id="path20" />
      <path
         d="M124.54 32.55 L129.54 45.8833 L124.54 41.2167 L124.54 32.55 Z"
         style="fill:none; stroke-width:0.6667; fill-rule:evenodd;"
         id="path21" />
    </g>
    <g
       style="text-rendering:optimizeSpeed; shape-rendering:crispEdges; color-interpolation:sRGB; color-rendering:optimizeSpeed; image-rendering:optimizeSpeed;"
       id="g22">
      <path
         style="stroke:none;"
         d="M124.54 32.55 L119.54 45.8833 L124.54 41.2167 L129.54 45.8833 Z"
         id="path22" />
    </g>
    <g
       style="stroke-linecap:butt; text-rendering:geometricPrecision; color-rendering:optimizeQuality; image-rendering:optimizeQuality; stroke-linejoin:round; color-interpolation:linearRGB; stroke-width:1.6;"
       id="g24">
      <line
         y2="386.26"
         style="fill:none;"
         x1="105.38"
         x2="858.3233"
         y1="386.26"
         id="line22" />
      <path
         d="M853.6566 381.26 L866.99 386.26 L858.3233 386.26 L853.6566 381.26 Z"
         style="fill:none; stroke-width:0.6667; fill-rule:evenodd;"
         id="path23" />
      <path
         d="M866.99 386.26 L853.6566 391.26 L858.3233 386.26 L866.99 386.26 Z"
         style="fill:none; stroke-width:0.6667; fill-rule:evenodd;"
         id="path24" />
    </g>
    <g
       style="text-rendering:optimizeSpeed; shape-rendering:crispEdges; color-interpolation:sRGB; color-rendering:optimizeSpeed; image-rendering:optimizeSpeed;"
       id="g25">
      <path
         style="stroke:none;"
         d="M866.99 386.26 L853.6566 381.26 L858.3233 386.26 L853.6566 391.26 Z"
         id="path25" />
    </g>
    <g
       style="stroke-linecap:butt; text-rendering:geometricPrecision; color-rendering:optimizeQuality; image-rendering:optimizeQuality; stroke-linejoin:round; color-interpolation:linearRGB; stroke-width:1.6;"
       id="g27">
      <line
         y2="41.2167"
         style="fill:none;"
         x1="124.54"
         x2="124.54"
         y1="407.96"
         id="line25" />
      <path
         d="M119.54 45.8833 L124.54 32.55 L124.54 41.2167 L119.54 45.8833 Z"
         style="fill:none; stroke-width:0.6667; fill-rule:evenodd;"
         id="path26" />
      <path
         d="M124.54 32.55 L129.54 45.8833 L124.54 41.2167 L124.54 32.55 Z"
         style="fill:none; stroke-width:0.6667; fill-rule:evenodd;"
         id="path27" />
    </g>
    <g
       style="text-rendering:optimizeSpeed; shape-rendering:crispEdges; color-interpolation:sRGB; color-rendering:optimizeSpeed; image-rendering:optimizeSpeed;"
       id="g28">
      <path
         style="stroke:none;"
         d="M124.54 32.55 L119.54 45.8833 L124.54 41.2167 L129.54 45.8833 Z"
         id="path28" />
    </g>
    <g
       style="stroke-linecap:butt; text-rendering:geometricPrecision; color-rendering:optimizeQuality; image-rendering:optimizeQuality; stroke-linejoin:round; color-interpolation:linearRGB; stroke-width:1.6;"
       id="g30">
      <line
         y2="386.26"
         style="fill:none;"
         x1="105.38"
         x2="858.3233"
         y1="386.26"
         id="line28" />
      <path
         d="M853.6566 381.26 L866.99 386.26 L858.3233 386.26 L853.6566 381.26 Z"
         style="fill:none; stroke-width:0.6667; fill-rule:evenodd;"
         id="path29" />
      <path
         d="M866.99 386.26 L853.6566 391.26 L858.3233 386.26 L866.99 386.26 Z"
         style="fill:none; stroke-width:0.6667; fill-rule:evenodd;"
         id="path30" />
    </g>
    <g
       style="text-rendering:optimizeSpeed; shape-rendering:crispEdges; color-interpolation:sRGB; color-rendering:optimizeSpeed; image-rendering:optimizeSpeed;"
       id="g31">
      <path
         style="stroke:none;"
         d="M866.99 386.26 L853.6566 381.26 L858.3233 386.26 L853.6566 391.26 Z"
         id="path31" />
    </g>
    <g
       style="stroke-linecap:butt; text-rendering:geometricPrecision; color-rendering:optimizeQuality; image-rendering:optimizeQuality; stroke-linejoin:round; color-interpolation:linearRGB; stroke-width:1.6;"
       id="g33">
      <line
         y2="41.2167"
         style="fill:none;"
         x1="124.54"
         x2="124.54"
         y1="407.96"
         id="line31" />
      <path
         d="M119.54 45.8833 L124.54 32.55 L124.54 41.2167 L119.54 45.8833 Z"
         style="fill:none; stroke-width:0.6667; fill-rule:evenodd;"
         id="path32" />
      <path
         d="M124.54 32.55 L129.54 45.8833 L124.54 41.2167 L124.54 32.55 Z"
         style="fill:none; stroke-width:0.6667; fill-rule:evenodd;"
         id="path33" />
    </g>
    <g
       style="text-rendering:optimizeSpeed; shape-rendering:crispEdges; color-interpolation:sRGB; color-rendering:optimizeSpeed; image-rendering:optimizeSpeed;"
       id="g34">
      <path
         style="stroke:none;"
         d="M124.54 32.55 L119.54 45.8833 L124.54 41.2167 L129.54 45.8833 Z"
         id="path34" />
    </g>
    <g
       style="stroke-linecap:butt; text-rendering:geometricPrecision; color-rendering:optimizeQuality; image-rendering:optimizeQuality; stroke-linejoin:round; color-interpolation:linearRGB; stroke-width:1.6;"
       id="g36">
      <line
         y2="386.26"
         style="fill:none;"
         x1="105.38"
         x2="858.3233"
         y1="386.26"
         id="line34" />
      <path
         d="M853.6566 381.26 L866.99 386.26 L858.3233 386.26 L853.6566 381.26 Z"
         style="fill:none; stroke-width:0.6667; fill-rule:evenodd;"
         id="path35" />
      <path
         d="M866.99 386.26 L853.6566 391.26 L858.3233 386.26 L866.99 386.26 Z"
         style="fill:none; stroke-width:0.6667; fill-rule:evenodd;"
         id="path36" />
    </g>
    <g
       style="text-rendering:optimizeSpeed; shape-rendering:crispEdges; color-interpolation:sRGB; color-rendering:optimizeSpeed; image-rendering:optimizeSpeed;"
       id="g37">
      <path
         style="stroke:none;"
         d="M866.99 386.26 L853.6566 381.26 L858.3233 386.26 L853.6566 391.26 Z"
         id="path37" />
    </g>
    <g
       style="stroke-linecap:butt; text-rendering:geometricPrecision; color-rendering:optimizeQuality; image-rendering:optimizeQuality; stroke-linejoin:round; color-interpolation:linearRGB; stroke-width:1.6;"
       id="g39">
      <line
         y2="41.2167"
         style="fill:none;"
         x1="124.54"
         x2="124.54"
         y1="407.96"
         id="line37" />
      <path
         d="M119.54 45.8833 L124.54 32.55 L124.54 41.2167 L119.54 45.8833 Z"
         style="fill:none; stroke-width:0.6667; fill-rule:evenodd;"
         id="path38" />
      <path
         d="M124.54 32.55 L129.54 45.8833 L124.54 41.2167 L124.54 32.55 Z"
         style="fill:none; stroke-width:0.6667; fill-rule:evenodd;"
         id="path39" />
    </g>
    <g
       style="text-rendering:optimizeSpeed; shape-rendering:crispEdges; color-interpolation:sRGB; color-rendering:optimizeSpeed; image-rendering:optimizeSpeed;"
       id="g40">
      <path
         style="stroke:none;"
         d="M124.54 32.55 L119.54 45.8833 L124.54 41.2167 L129.54 45.8833 Z"
         id="path40" />
    </g>
    <g
       style="stroke-linecap:butt; text-rendering:geometricPrecision; color-rendering:optimizeQuality; image-rendering:optimizeQuality; stroke-linejoin:round; color-interpolation:linearRGB; stroke-width:1.6;"
       id="g42">
      <line
         y2="386.26"
         style="fill:none;"
         x1="105.38"
         x2="858.3233"
         y1="386.26"
         id="line40" />
      <path
         d="M853.6566 381.26 L866.99 386.26 L858.3233 386.26 L853.6566 381.26 Z"
         style="fill:none; stroke-width:0.6667; fill-rule:evenodd;"
         id="path41" />
      <path
         d="M866.99 386.26 L853.6566 391.26 L858.3233 386.26 L866.99 386.26 Z"
         style="fill:none; stroke-width:0.6667; fill-rule:evenodd;"
         id="path42" />
    </g>
    <g
       style="text-rendering:optimizeSpeed; shape-rendering:crispEdges; color-interpolation:sRGB; color-rendering:optimizeSpeed; image-rendering:optimizeSpeed;"
       id="g43">
      <path
         style="stroke:none;"
         d="M866.99 386.26 L853.6566 381.26 L858.3233 386.26 L853.6566 391.26 Z"
         id="path43" />
    </g>
    <g
       style="stroke-linecap:butt; text-rendering:geometricPrecision; color-rendering:optimizeQuality; image-rendering:optimizeQuality; stroke-linejoin:round; color-interpolation:linearRGB; stroke-width:1.6;"
       id="g45">
      <line
         y2="41.2167"
         style="fill:none;"
         x1="124.54"
         x2="124.54"
         y1="407.96"
         id="line43" />
      <path
         d="M119.54 45.8833 L124.54 32.55 L124.54 41.2167 L119.54 45.8833 Z"
         style="fill:none; stroke-width:0.6667; fill-rule:evenodd;"
         id="path44" />
      <path
         d="M124.54 32.55 L129.54 45.8833 L124.54 41.2167 L124.54 32.55 Z"
         style="fill:none; stroke-width:0.6667; fill-rule:evenodd;"
         id="path45" />
    </g>
    <g
       style="text-rendering:optimizeSpeed; shape-rendering:crispEdges; color-interpolation:sRGB; color-rendering:optimizeSpeed; image-rendering:optimizeSpeed;"
       id="g46">
      <path
         style="stroke:none;"
         d="M124.54 32.55 L119.54 45.8833 L124.54 41.2167 L129.54 45.8833 Z"
         id="path46" />
    </g>
    <g
       style="stroke-linecap:butt; text-rendering:geometricPrecision; color-rendering:optimizeQuality; image-rendering:optimizeQuality; stroke-linejoin:round; color-interpolation:linearRGB; stroke-width:1.6;"
       id="g48">
      <line
         y2="386.26"
         style="fill:none;"
         x1="105.38"
         x2="858.3233"
         y1="386.26"
         id="line46" />
      <path
         d="M853.6566 381.26 L866.99 386.26 L858.3233 386.26 L853.6566 381.26 Z"
         style="fill:none; stroke-width:0.6667; fill-rule:evenodd;"
         id="path47" />
      <path
         d="M866.99 386.26 L853.6566 391.26 L858.3233 386.26 L866.99 386.26 Z"
         style="fill:none; stroke-width:0.6667; fill-rule:evenodd;"
         id="path48" />
    </g>
    <g
       style="text-rendering:optimizeSpeed; shape-rendering:crispEdges; color-interpolation:sRGB; color-rendering:optimizeSpeed; image-rendering:optimizeSpeed;"
       id="g49">
      <path
         style="stroke:none;"
         d="M866.99 386.26 L853.6566 381.26 L858.3233 386.26 L853.6566 391.26 Z"
         id="path49" />
    </g>
    <g
       style="stroke-linecap:butt; text-rendering:geometricPrecision; color-rendering:optimizeQuality; image-rendering:optimizeQuality; stroke-linejoin:round; color-interpolation:linearRGB; stroke-width:1.6;"
       id="g51">
      <line
         y2="41.2167"
         style="fill:none;"
         x1="124.54"
         x2="124.54"
         y1="407.96"
         id="line49" />
      <path
         d="M119.54 45.8833 L124.54 32.55 L124.54 41.2167 L119.54 45.8833 Z"
         style="fill:none; stroke-width:0.6667; fill-rule:evenodd;"
         id="path50" />
      <path
         d="M124.54 32.55 L129.54 45.8833 L124.54 41.2167 L124.54 32.55 Z"
         style="fill:none; stroke-width:0.6667; fill-rule:evenodd;"
         id="path51" />
    </g>
    <g
       style="text-rendering:optimizeSpeed; shape-rendering:crispEdges; color-interpolation:sRGB; color-rendering:optimizeSpeed; image-rendering:optimizeSpeed;"
       id="g52">
      <path
         style="stroke:none;"
         d="M124.54 32.55 L119.54 45.8833 L124.54 41.2167 L129.54 45.8833 Z"
         id="path52" />
    </g>
    <g
       style="stroke-linecap:butt; text-rendering:geometricPrecision; color-rendering:optimizeQuality; image-rendering:optimizeQuality; stroke-linejoin:round; color-interpolation:linearRGB; stroke-width:1.6;"
       id="g54">
      <line
         y2="386.26"
         style="fill:none;"
         x1="105.38"
         x2="858.3233"
         y1="386.26"
         id="line52" />
      <path
         d="M853.6566 381.26 L866.99 386.26 L858.3233 386.26 L853.6566 381.26 Z"
         style="fill:none; stroke-width:0.6667; fill-rule:evenodd;"
         id="path53" />
      <path
         d="M866.99 386.26 L853.6566 391.26 L858.3233 386.26 L866.99 386.26 Z"
         style="fill:none; stroke-width:0.6667; fill-rule:evenodd;"
         id="path54" />
    </g>
    <g
       style="text-rendering:optimizeSpeed; shape-rendering:crispEdges; color-interpolation:sRGB; color-rendering:optimizeSpeed; image-rendering:optimizeSpeed;"
       id="g55">
      <path
         style="stroke:none;"
         d="M866.99 386.26 L853.6566 381.26 L858.3233 386.26 L853.6566 391.26 Z"
         id="path55" />
    </g>
    <g
       style="stroke-linecap:butt; text-rendering:geometricPrecision; color-rendering:optimizeQuality; image-rendering:optimizeQuality; stroke-linejoin:round; color-interpolation:linearRGB; stroke-width:1.6;"
       id="g57">
      <line
         y2="41.2167"
         style="fill:none;"
         x1="124.54"
         x2="124.54"
         y1="407.96"
         id="line55" />
      <path
         d="M119.54 45.8833 L124.54 32.55 L124.54 41.2167 L119.54 45.8833 Z"
         style="fill:none; stroke-width:0.6667; fill-rule:evenodd;"
         id="path56" />
      <path
         d="M124.54 32.55 L129.54 45.8833 L124.54 41.2167 L124.54 32.55 Z"
         style="fill:none; stroke-width:0.6667; fill-rule:evenodd;"
         id="path57" />
    </g>
    <g
       style="text-rendering:optimizeSpeed; shape-rendering:crispEdges; color-interpolation:sRGB; color-rendering:optimizeSpeed; image-rendering:optimizeSpeed;"
       id="g58">
      <path
         style="stroke:none;"
         d="M124.54 32.55 L119.54 45.8833 L124.54 41.2167 L129.54 45.8833 Z"
         id="path58" />
    </g>
    <g
       style="stroke-linecap:butt; text-rendering:geometricPrecision; color-rendering:optimizeQuality; image-rendering:optimizeQuality; stroke-linejoin:round; color-interpolation:linearRGB; stroke-width:1.6;"
       id="g60">
      <line
         y2="386.26"
         style="fill:none;"
         x1="105.38"
         x2="858.3233"
         y1="386.26"
         id="line58" />
      <path
         d="M853.6566 381.26 L866.99 386.26 L858.3233 386.26 L853.6566 381.26 Z"
         style="fill:none; stroke-width:0.6667; fill-rule:evenodd;"
         id="path59" />
      <path
         d="M866.99 386.26 L853.6566 391.26 L858.3233 386.26 L866.99 386.26 Z"
         style="fill:none; stroke-width:0.6667; fill-rule:evenodd;"
         id="path60" />
    </g>
    <g
       style="text-rendering:optimizeSpeed; shape-rendering:crispEdges; color-interpolation:sRGB; color-rendering:optimizeSpeed; image-rendering:optimizeSpeed;"
       id="g61">
      <path
         style="stroke:none;"
         d="M866.99 386.26 L853.6566 381.26 L858.3233 386.26 L853.6566 391.26 Z"
         id="path61" />
    </g>
    <g
       style="stroke-linecap:butt; text-rendering:geometricPrecision; color-rendering:optimizeQuality; image-rendering:optimizeQuality; stroke-linejoin:round; color-interpolation:linearRGB; stroke-width:1.6;"
       id="g63">
      <line
         y2="41.2167"
         style="fill:none;"
         x1="124.54"
         x2="124.54"
         y1="407.96"
         id="line61" />
      <path
         d="M119.54 45.8833 L124.54 32.55 L124.54 41.2167 L119.54 45.8833 Z"
         style="fill:none; stroke-width:0.6667; fill-rule:evenodd;"
         id="path62" />
      <path
         d="M124.54 32.55 L129.54 45.8833 L124.54 41.2167 L124.54 32.55 Z"
         style="fill:none; stroke-width:0.6667; fill-rule:evenodd;"
         id="path63" />
    </g>
    <g
       style="text-rendering:optimizeSpeed; shape-rendering:crispEdges; color-interpolation:sRGB; color-rendering:optimizeSpeed; image-rendering:optimizeSpeed;"
       id="g64">
      <path
         style="stroke:none;"
         d="M124.54 32.55 L119.54 45.8833 L124.54 41.2167 L129.54 45.8833 Z"
         id="path64" />
    </g>
    <g
       style="stroke-linecap:butt; text-rendering:geometricPrecision; color-rendering:optimizeQuality; image-rendering:optimizeQuality; stroke-linejoin:round; color-interpolation:linearRGB; stroke-width:1.6;"
       id="g66">
      <line
         y2="386.26"
         style="fill:none;"
         x1="105.38"
         x2="858.3233"
         y1="386.26"
         id="line64" />
      <path
         d="M853.6566 381.26 L866.99 386.26 L858.3233 386.26 L853.6566 381.26 Z"
         style="fill:none; stroke-width:0.6667; fill-rule:evenodd;"
         id="path65" />
      <path
         d="M866.99 386.26 L853.6566 391.26 L858.3233 386.26 L866.99 386.26 Z"
         style="fill:none; stroke-width:0.6667; fill-rule:evenodd;"
         id="path66" />
    </g>
    <g
       style="text-rendering:optimizeSpeed; shape-rendering:crispEdges; color-interpolation:sRGB; color-rendering:optimizeSpeed; image-rendering:optimizeSpeed;"
       id="g67">
      <path
         style="stroke:none;"
         d="M866.99 386.26 L853.6566 381.26 L858.3233 386.26 L853.6566 391.26 Z"
         id="path67" />
    </g>
    <g
       style="stroke-linecap:butt; text-rendering:geometricPrecision; color-rendering:optimizeQuality; image-rendering:optimizeQuality; stroke-linejoin:round; color-interpolation:linearRGB; stroke-width:1.6;"
       id="g69">
      <line
         y2="41.2167"
         style="fill:none;"
         x1="124.54"
         x2="124.54"
         y1="407.96"
         id="line67" />
      <path
         d="M119.54 45.8833 L124.54 32.55 L124.54 41.2167 L119.54 45.8833 Z"
         style="fill:none; stroke-width:0.6667; fill-rule:evenodd;"
         id="path68" />
      <path
         d="M124.54 32.55 L129.54 45.8833 L124.54 41.2167 L124.54 32.55 Z"
         style="fill:none; stroke-width:0.6667; fill-rule:evenodd;"
         id="path69" />
    </g>
    <g
       style="text-rendering:optimizeSpeed; shape-rendering:crispEdges; color-interpolation:sRGB; color-rendering:optimizeSpeed; image-rendering:optimizeSpeed;"
       id="g70">
      <path
         style="stroke:none;"
         d="M124.54 32.55 L119.54 45.8833 L124.54 41.2167 L129.54 45.8833 Z"
         id="path70" />
    </g>
  </g>
</svg>
