<?xml version="1.0" encoding="UTF-8" standalone="no"?>
<svg
   style="fill-opacity:1; color-rendering:auto; color-interpolation:auto; text-rendering:auto; stroke:black; stroke-linecap:square; stroke-miterlimit:10; shape-rendering:auto; stroke-opacity:1; fill:black; stroke-dasharray:none; font-weight:normal; stroke-width:1; font-family:'Dialog'; font-style:normal; stroke-linejoin:miter; font-size:12px; stroke-dashoffset:0; image-rendering:auto;"
   width="958"
   height="434"
   version="1.1"
   id="svg35"
   sodipodi:docname="ifi.svg"
   inkscape:version="1.3.2 (091e20ef0f, 2023-11-25)"
   xmlns:inkscape="http://www.inkscape.org/namespaces/inkscape"
   xmlns:sodipodi="http://sodipodi.sourceforge.net/DTD/sodipodi-0.dtd"
   xmlns="http://www.w3.org/2000/svg"
   xmlns:svg="http://www.w3.org/2000/svg">
  <sodipodi:namedview
     id="namedview35"
     pagecolor="#505050"
     bordercolor="#eeeeee"
     borderopacity="1"
     inkscape:showpageshadow="0"
     inkscape:pageopacity="0"
     inkscape:pagecheckerboard="0"
     inkscape:deskcolor="#505050"
     inkscape:zoom="0.4822547"
     inkscape:cx="524.61905"
     inkscape:cy="256.08875"
     inkscape:window-width="1920"
     inkscape:window-height="1045"
     inkscape:window-x="0"
     inkscape:window-y="0"
     inkscape:window-maximized="1"
     inkscape:current-layer="svg35" />
  <!--Generated by the Batik Graphics2D SVG Generator-->
  <defs
     id="genericDefs" />
  <g
     id="g35">
    <defs
       id="defs1">
      <clipPath
         clipPathUnits="userSpaceOnUse"
         id="clipPath1">
        <path
           d="M0 0 L958 0 L958 434 L0 434 L0 0 Z"
           id="path1" />
      </clipPath>
    </defs>
    <g
       style="fill:white; stroke:white;"
       id="g1">
      <rect
         x="0"
         y="0"
         width="958"
         style="clip-path:url(#clipPath1); stroke:none;"
         height="434"
         clip-path="url(#clipPath1)"
         id="rect1" />
    </g>
    <g
       style="fill:white; text-rendering:optimizeSpeed; color-rendering:optimizeSpeed; image-rendering:optimizeSpeed; shape-rendering:crispEdges; stroke:white; color-interpolation:sRGB;"
       id="g2">
      <rect
         x="0"
         width="958"
         height="434"
         y="0"
         style="stroke:none;"
         id="rect2" />
      <path
         style="stroke:none;"
         d="M125 386 L867 386 L867 33 L125 33 Z"
         id="path2" />
    </g>
    <g
       style="fill:rgb(38,38,38); text-rendering:geometricPrecision; image-rendering:optimizeQuality; color-rendering:optimizeQuality; stroke-linejoin:round; stroke:rgb(38,38,38); color-interpolation:linearRGB; stroke-width:0.6667;"
       id="g5">
      <line
         y2="386"
         style="fill:none;"
         x1="125"
         x2="867"
         y1="386"
         id="line2" />
      <line
         y2="33"
         style="fill:none;"
         x1="125"
         x2="125"
         y1="386"
         id="line4" />
    </g>
    <g
       style="stroke-linecap:butt; text-rendering:geometricPrecision; color-rendering:optimizeQuality; image-rendering:optimizeQuality; stroke-linejoin:round; color-interpolation:linearRGB; stroke-width:1.3333;"
       id="g6">
      <path
         d="M125 87.3077 L126.1593 87.3077 L127.3186 87.3077 L128.4778 87.3077 L129.6371 87.3077 L130.7301 87.3077 L131.8231 87.3077 L132.9161 87.3077 L134.0092 87.3077 L135.164 87.3077 L136.3188 87.3077 L137.4736 87.3077 L138.6284 87.3077 L139.8439 87.3077 L141.0594 87.3077 L142.275 87.3077 L143.4905 87.3077 L144.7758 87.3077 L146.0612 87.3077 L147.3465 87.3077 L148.6319 87.3077 L149.9967 87.3077 L151.3616 87.3077 L152.7265 87.3077 L154.0914 87.3077 L155.5473 87.3077 L157.0033 87.3077 L158.4592 87.3077 L159.9151 87.3077 L161.4756 87.3077 L163.0361 87.3077 L164.5966 87.3077 L166.1571 87.3077 L167.163 87.3077 L168.1689 87.3077 L169.1747 87.3077 L170.1806 87.3077 L170.1806 87.3077 L171.0263 87.3077 L171.8721 87.3077 L172.7178 87.3077 L173.5635 87.3077 L174.5965 87.3077 L175.6294 87.3077 L176.6623 87.3077 L177.6952 87.3077 L178.7622 87.3077 L179.8292 87.3077 L180.8962 87.3077 L181.9632 87.3077 L183.0802 87.3077 L184.1971 87.3077 L185.3141 87.3077 L186.4311 87.3077 L187.6042 87.3077 L188.7773 87.3077 L189.9505 87.3077 L191.1236 87.3077 L192.3606 87.3077 L193.5976 87.3077 L194.8346 87.3077 L196.0717 87.3077 L197.3814 87.3077 L198.6912 87.3077 L200.001 87.3077 L201.3108 87.3077 L202.7036 87.3077 L204.0964 87.3077 L205.4892 87.3077 L206.882 87.3077 L208.37 87.3077 L209.8579 87.3077 L211.3459 87.3077 L212.8338 87.3077 L214.4313 87.3077 L216.0287 87.3077 L217.6262 87.3077 L219.2236 87.3077 L219.703 87.3077 L220.1823 87.3077 L220.6616 87.3077 L221.1409 87.3077 L221.1409 87.3077 L221.9866 87.3077 L222.8324 87.3077 L223.6781 87.3077 L224.5238 87.3077 L225.5567 87.3077 L226.5897 87.3077 L227.6226 87.3077 L228.6555 87.3077 L229.7225 87.3077 L230.7895 87.3077 L231.8565 87.3077 L232.9235 87.3077 L234.0405 87.3077 L235.1575 87.3077 L236.2744 87.3077 L237.3914 87.3077 L238.5645 87.3077 L239.7377 87.3077 L240.9108 87.3077 L242.0839 87.3077 L243.3209 87.3077 L244.5579 87.3077 L245.7949 87.3077 L247.032 87.3077 L248.3418 87.3077 L249.6515 87.3077 L250.9613 87.3077 L252.2711 87.3077 L253.6639 87.3077 L255.0567 87.3077 L256.4495 87.3077 L257.8423 87.3077 L259.3303 87.3077 L260.8182 87.3077 L262.3062 87.3077 L263.7941 87.3077 L265.3916 87.3077 L266.989 87.3077 L268.5865 87.3077 L270.184 87.3077 L270.6633 87.3077 L271.1427 87.3077 L271.6221 87.3077 L272.1014 87.3077 L272.1014 87.3077 L272.3846 87.3077 L272.6677 87.3077 L272.9509 87.3077 L273.234 87.3077 L273.2689 87.3077 L273.3038 87.3077 L273.3387 87.3077 L273.3735 87.3077 L273.3798 87.3077 L273.386 87.3077 L273.3923 87.3077 L273.3985 87.3077 L273.4048 358.8462 L273.411 358.8462 L273.4173 358.8462 L273.4236 358.8462 L273.4298 358.8462 L273.4361 358.8462 L273.4424 358.8462 L273.4487 358.8462 L273.4802 358.8462 L273.5117 358.8462 L273.5432 358.8462 L273.5746 358.8462 L273.732 358.8462 L273.8893 358.8462 L274.0467 358.8462 L274.204 358.8462 L274.9908 358.8462 L275.7776 358.8462 L276.5644 358.8462 L277.3511 358.8462 L278.7374 358.8462 L280.1237 358.8462 L281.5099 358.8462 L282.8962 358.8462 L284.3218 358.8462 L285.7475 358.8462 L287.1731 358.8462 L288.5987 358.8462 L290.1297 358.8462 L291.6607 358.8462 L293.1917 358.8462 L294.7227 358.8462 L296.3693 358.8462 L298.016 358.8462 L299.6626 358.8462 L301.3093 358.8462 L303.0909 358.8462 L304.8727 358.8462 L306.6543 358.8462 L308.436 358.8462 L310.3759 358.8462 L312.3158 358.8462 L314.2557 358.8462 L316.1956 358.8462 L318.3229 358.8462 L320.4501 358.8462 L322.5774 358.8462 L324.7047 358.8462 L327.0566 358.8462 L329.4085 358.8462 L331.7604 358.8462 L334.1123 358.8462 L336.7375 358.8462 L339.3628 358.8462 L341.988 358.8462 L344.6132 358.8462 L347.5768 358.8462 L350.5404 358.8462 L353.504 358.8462 L356.4676 358.8462 L359.859 358.8462 L363.2504 358.8462 L366.6418 358.8462 L370.0332 358.8462 L373.9793 358.8462 L377.9254 358.8462 L381.8715 358.8462 L385.8175 358.8462 L390.5054 358.8462 L395.1933 358.8462 L399.8812 358.8462 L404.5691 358.8462 L410.2878 358.8462 L416.0064 358.8462 L421.7251 358.8462 L427.4438 358.8462 L434.6633 358.8462 L441.8828 358.8462 L449.1023 358.8462 L456.3218 358.8462 L465.8395 358.8462 L475.3572 358.8462 L484.8749 358.8462 L494.3925 358.8462 L507.4037 358.8462 L520.4148 358.8462 L533.4259 358.8462 L546.437 358.8462 L548.2038 358.8462 L549.9705 358.8462 L551.7373 358.8462 L553.5041 358.8462 L555.2708 358.8462 L557.0376 358.8462 L558.8044 358.8462 L560.5711 358.8462 L561.4545 358.8462 L562.3379 358.8462 L563.2213 358.8462 L564.1047 358.8462 L564.988 358.8462 L565.8714 358.8462 L566.7548 358.8462 L567.6382 358.8462 L568.2487 358.8462 L568.8593 358.8462 L569.4698 358.8462 L570.0803 358.8462 L570.0986 358.8462 L570.1168 358.8462 L570.135 358.8462 L570.1533 358.8462 L570.1594 358.8462 L570.1655 358.8462 L570.1717 358.8462 L570.1779 358.8462 L570.1815 358.8462 L570.1851 358.8462 L570.1887 358.8462 L570.1924 358.8462 L570.196 358.8462 L570.1996 358.8462 L570.2032 87.3077 L570.2068 87.3077 L570.2103 87.3077 L570.2136 87.3077 L570.217 87.3077 L570.2203 87.3077 L570.2372 87.3077 L570.254 87.3077 L570.2709 87.3077 L570.2877 87.3077 L570.3719 87.3077 L570.4561 87.3077 L570.5403 87.3077 L570.6245 87.3077 L571.0454 87.3077 L571.4664 87.3077 L571.8873 87.3077 L572.3083 87.3077 L573.4237 87.3077 L574.5392 87.3077 L575.6546 87.3077 L576.77 87.3077 L577.8907 87.3077 L579.0114 87.3077 L580.132 87.3077 L581.2527 87.3077 L582.4337 87.3077 L583.6147 87.3077 L584.7958 87.3077 L585.9768 87.3077 L587.2225 87.3077 L588.4682 87.3077 L589.7139 87.3077 L590.9597 87.3077 L592.2794 87.3077 L593.5991 87.3077 L594.9188 87.3077 L596.2385 87.3077 L597.6427 87.3077 L599.0469 87.3077 L600.4511 87.3077 L601.8552 87.3077 L603.3563 87.3077 L604.8572 87.3077 L606.3582 87.3077 L607.8592 87.3077 L609.4717 87.3077 L611.0843 87.3077 L612.6968 87.3077 L614.3093 87.3077 L614.5772 87.3077 L614.8451 87.3077 L615.113 87.3077 L615.381 87.3077 L615.381 87.3077 L616.2267 87.3077 L617.0724 87.3077 L617.9182 87.3077 L618.7639 87.3077 L619.7968 87.3077 L620.8298 87.3077 L621.8627 87.3077 L622.8956 87.3077 L623.9626 87.3077 L625.0295 87.3077 L626.0966 87.3077 L627.1635 87.3077 L628.2805 87.3077 L629.3975 87.3077 L630.5145 87.3077 L631.6315 87.3077 L632.8046 87.3077 L633.9777 87.3077 L635.1508 87.3077 L636.324 87.3077 L637.561 87.3077 L638.798 87.3077 L640.035 87.3077 L641.272 87.3077 L642.5818 87.3077 L643.8916 87.3077 L645.2014 87.3077 L646.5111 87.3077 L647.9039 87.3077 L649.2968 87.3077 L650.6896 87.3077 L652.0824 87.3077 L653.5703 87.3077 L655.0583 87.3077 L656.5463 87.3077 L658.0342 87.3077 L659.6317 87.3077 L661.2291 87.3077 L662.8265 87.3077 L664.424 87.3077 L664.9033 87.3077 L665.3826 87.3077 L665.8619 87.3077 L666.3413 87.3077 L666.3413 87.3077 L667.187 87.3077 L668.0327 87.3077 L668.8784 87.3077 L669.7242 87.3077 L670.7571 87.3077 L671.79 87.3077 L672.823 87.3077 L673.8559 87.3077 L674.9229 87.3077 L675.9899 87.3077 L677.0568 87.3077 L678.1238 87.3077 L679.2408 87.3077 L680.3578 87.3077 L681.4748 87.3077 L682.5918 87.3077 L683.7649 87.3077 L684.938 87.3077 L686.1111 87.3077 L687.2842 87.3077 L688.5213 87.3077 L689.7583 87.3077 L690.9953 87.3077 L692.2323 87.3077 L693.5421 87.3077 L694.8519 87.3077 L696.1617 87.3077 L697.4714 87.3077 L698.8643 87.3077 L700.2571 87.3077 L701.6499 87.3077 L703.0427 87.3077 L704.5307 87.3077 L706.0186 87.3077 L707.5066 87.3077 L708.9945 87.3077 L710.5919 87.3077 L712.1894 87.3077 L713.7869 87.3077 L715.3843 87.3077 L715.8636 87.3077 L716.343 87.3077 L716.8223 87.3077 L717.3016 87.3077 L717.3016 87.3077 L718.1473 87.3077 L718.993 87.3077 L719.8387 87.3077 L720.6845 87.3077 L721.7174 87.3077 L722.7504 87.3077 L723.7833 87.3077 L724.8162 87.3077 L725.8832 87.3077 L726.9501 87.3077 L728.0172 87.3077 L729.0841 87.3077 L730.2012 87.3077 L731.3181 87.3077 L732.4351 87.3077 L733.5521 87.3077 L734.7252 87.3077 L735.8984 87.3077 L737.0714 87.3077 L738.2446 87.3077 L739.4816 87.3077 L740.7186 87.3077 L741.9556 87.3077 L743.1926 87.3077 L744.5024 87.3077 L745.8122 87.3077 L747.122 87.3077 L748.4318 87.3077 L749.8245 87.3077 L751.2174 87.3077 L752.6102 87.3077 L754.003 87.3077 L755.491 87.3077 L756.9789 87.3077 L758.4669 87.3077 L759.9548 87.3077 L761.5522 87.3077 L763.1497 87.3077 L764.7471 87.3077 L766.3446 87.3077 L766.8239 87.3077 L767.3033 87.3077 L767.7826 87.3077 L768.2619 87.3077 L768.2619 87.3077 L769.1077 87.3077 L769.9534 87.3077 L770.7991 87.3077 L771.6448 87.3077 L772.6777 87.3077 L773.7107 87.3077 L774.7436 87.3077 L775.7765 87.3077 L776.8435 87.3077 L777.9105 87.3077 L778.9775 87.3077 L780.0444 87.3077 L781.1615 87.3077 L782.2784 87.3077 L783.3954 87.3077 L784.5124 87.3077 L785.6855 87.3077 L786.8586 87.3077 L788.0317 87.3077 L789.2048 87.3077 L790.4419 87.3077 L791.6789 87.3077 L792.916 87.3077 L794.153 87.3077 L795.4627 87.3077 L796.7725 87.3077 L798.0823 87.3077 L799.3921 87.3077 L800.7849 87.3077 L802.1777 87.3077 L803.5705 87.3077 L804.9634 87.3077 L806.4513 87.3077 L807.9393 87.3077 L809.4272 87.3077 L810.9151 87.3077 L812.5126 87.3077 L814.11 87.3077 L815.7075 87.3077 L817.3049 87.3077 L817.7842 87.3077 L818.2635 87.3077 L818.7429 87.3077 L819.2222 87.3077 L819.2222 87.3077 L820.0679 87.3077 L820.9136 87.3077 L821.7594 87.3077 L822.6051 87.3077 L823.638 87.3077 L824.671 87.3077 L825.7039 87.3077 L826.7368 87.3077 L827.8038 87.3077 L828.8708 87.3077 L829.9377 87.3077 L831.0048 87.3077 L832.1218 87.3077 L833.2388 87.3077 L834.3557 87.3077 L835.4727 87.3077 L836.6458 87.3077 L837.819 87.3077 L838.9921 87.3077 L840.1652 87.3077 L841.3596 87.3077 L842.5541 87.3077 L843.7485 87.3077 L844.9429 87.3077 L846.1374 87.3077 L847.3318 87.3077 L848.5263 87.3077 L849.7207 87.3077 L850.9152 87.3077 L852.1096 87.3077 L853.3041 87.3077 L854.4985 87.3077 L855.693 87.3077 L856.8874 87.3077 L858.0818 87.3077 L859.2763 87.3077 L860.4708 87.3077 L861.6652 87.3077 L862.8597 87.3077 L864.0541 87.3077 L864.7906 87.3077 L865.527 87.3077 L866.2635 87.3077 L867 87.3077"
         style="fill:none; fill-rule:evenodd;"
         id="path5" />
    </g>
    <g
       transform="translate(852.16,386)"
       style="font-size:40px; text-rendering:geometricPrecision; color-rendering:optimizeQuality; image-rendering:optimizeQuality; font-family:'mwa_cmmi10'; color-interpolation:linearRGB;"
       id="g7">
      <path
         style="stroke:none;stroke-width:1.66939"
         d="m 41.851663,33.927001 q 0,-0.965254 0.182628,-1.852045 l 4.825443,-19.172193 h -6.990432 q -0.704302,0 -0.704302,-0.886791 0.260754,-1.460735 0.886762,-1.460735 h 7.407939 L 50.120155,-0.32214965 Q 50.381076,-1.2089412 51.163503,-1.8349706 51.945931,-2.461 52.937195,-2.461 q 0.834679,0 1.408604,0.5086698 0.573758,0.5086697 0.573758,1.36941844 0,0.18263364 -0.01302,0.29999329 -0.01302,0.11735965 -0.03923,0.24774071 L 52.18081,10.555237 h 6.886097 q 0.678093,0 0.678093,0.886791 -0.02604,0.156591 -0.130377,0.547734 -0.104335,0.39131 -0.260753,0.652239 -0.156586,0.260762 -0.495632,0.260762 h -7.251353 l -4.799402,19.302574 q -0.495632,1.904131 -0.495632,3.260528 0,2.869385 1.95632,2.869385 2.947583,0 5.203719,-2.752025 2.256303,-2.751859 3.482112,-6.03843 0.260921,-0.39131 0.521841,-0.39131 h 0.80847 q 0.26092,0 0.417339,0.169446 0.156586,0.169612 0.156586,0.404331 0,0.130548 -0.05225,0.208677 -1.460688,4.043148 -4.264707,7.108021 -2.804019,3.06504 -6.429528,3.06504 -2.634579,0 -4.447334,-1.734686 -1.812755,-1.734519 -1.812756,-4.447313 z"
         id="path6" />
    </g>
    <g
       transform="translate(50.8,58.8608)"
       style="font-size:40px; text-rendering:geometricPrecision; color-rendering:optimizeQuality; image-rendering:optimizeQuality; font-family:'mwa_cmmi10'; color-interpolation:linearRGB;"
       id="g10">
      <path
         style="stroke:none;stroke-width:1.5328"
         d="m -49.50066,-11.6268 q -0.61034,0 -0.61034,-0.798863 0.244074,-1.31565 0.781286,-1.31565 3.686575,0 5.005073,-0.234862 1.440535,-0.328988 1.806645,-1.785525 l 8.569768,-33.055744 q 0.122193,-0.587306 0.122193,-0.7518 0,-0.3759 -0.195321,-0.540394 -0.195321,-0.164494 -0.634873,-0.258469 -1.245213,-0.234862 -4.712091,-0.234862 -0.659249,0 -0.659249,-0.798863 0.219698,-0.7518 0.341891,-1.033725 0.122037,-0.281925 0.732377,-0.281925 h 17.456894 q 0.610341,0 0.610341,0.798863 -0.02438,0.140887 -0.122037,0.493331 -0.09766,0.352444 -0.24423,0.587306 -0.146413,0.235013 -0.463771,0.235013 -3.662356,0 -5.053982,0.234862 -1.36725,0.328988 -1.733517,1.832588 l -8.545392,33.008681 q -0.170789,0.728344 -0.170789,0.775256 0,0.164494 0.04875,0.293654 0.04891,0.129309 0.183134,0.235012 0.134225,0.105703 0.280794,0.140888 0.146569,0.03533 0.317358,0.105853 1.196461,0.234862 4.761,0.234862 0.61034,0 0.61034,0.798863 -0.219697,0.845775 -0.341734,1.080637 -0.122037,0.235013 -0.732534,0.235013 z"
         id="path7" />
      <path
         style="stroke:none;stroke-width:1.5328"
         d="M -0.37200072,3.2916185 Q -3.8634108,0.66031848 -6.3780573,-2.7696938 q -2.5148029,-3.4301627 -4.1139387,-7.3065942 -1.599292,-3.876431 -2.392766,-8.105306 -0.793474,-4.228875 -0.793474,-8.481206 0,-4.32285 0.793474,-8.551725 0.793474,-4.228875 2.42933,-8.128913 1.6358565,-3.899887 4.1628473,-7.306594 2.5268346,-3.406556 5.92058398,-5.967337 0,-0.117431 0.29298218,-0.117431 h 0.58596437 q 0.19532145,0 0.34189067,0.164343 0.14641297,0.164494 0.14641297,0.352444 0,0.281925 -0.12203685,0.399356 -3.05185872,2.866313 -5.07835782,6.155438 -2.0264992,3.289125 -3.2593682,7.001062 -1.2330253,3.712088 -1.7824255,7.694222 -0.5492439,3.982285 -0.5492439,8.305135 0,19.1238373 10.62048693,29.038275 0.17094534,0.18795 0.17094534,0.5167873 0,0.1410377 -0.17094534,0.3289877 Q 0.65351505,3.4092 0.50694583,3.4092 h -0.58596437 q -0.29298218,0 -0.29298218,-0.1175815 z"
         id="path8" />
      <path
         style="stroke:none;stroke-width:1.5328"
         d="m 8.4310591,-16.5135 q 0,-0.869382 0.1709454,-1.668094 L 13.118774,-35.449538 H 6.5755053 q -0.6590927,0 -0.6590927,-0.798712 0.2440737,-1.31565 0.8300381,-1.31565 h 6.9339113 l 2.490427,-9.797007 q 0.244074,-0.798712 0.976607,-1.362562 0.732378,-0.56385 1.660233,-0.56385 0.781285,0 1.318341,0.458147 0.537212,0.458147 0.537212,1.233403 0,0.164494 -0.01219,0.270197 -0.01234,0.105703 -0.03672,0.223134 l -2.514803,9.538538 h 6.445608 q 0.634873,0 0.634873,0.798712 -0.02438,0.141038 -0.122037,0.493331 -0.09766,0.352444 -0.24423,0.587457 -0.146413,0.234862 -0.463927,0.234862 h -6.787343 l -4.492393,17.385375 q -0.463928,1.715006 -0.463928,2.936681 0,2.584388 1.831178,2.584388 2.758877,0 4.870848,-2.478684 2.111816,-2.478535 3.259369,-5.438672 0.24423,-0.352444 0.488303,-0.352444 h 0.75691 q 0.244074,0 0.390643,0.152616 0.146413,0.152765 0.146413,0.364171 0,0.117582 -0.04875,0.18795 -1.367251,3.641569 -3.991902,6.402029 -2.624652,2.760609 -6.018401,2.760609 -2.465894,0 -4.162691,-1.562391 -1.6969529,-1.56224 -1.6969529,-4.00559 z"
         id="path9" />
      <path
         style="stroke:none;stroke-width:1.5328"
         d="m 31.172571,3.4092 q -0.537213,0 -0.537213,-0.5169377 0,-0.281925 0.122194,-0.3993561 10.669395,-10.0318689 10.669395,-29.1557062 0,-19.123988 -10.547359,-29.038275 -0.24423,-0.164494 -0.24423,-0.516938 0,-0.18795 0.170946,-0.352444 0.170945,-0.164343 0.366267,-0.164343 h 0.585964 q 0.195321,0 0.317358,0.117431 4.468018,3.406556 7.45878,8.281528 2.990918,4.874972 4.382544,10.396041 1.391783,5.520918 1.391783,11.277 0,4.252331 -0.744722,8.375503 -0.744721,4.123172 -2.380421,8.14049 Q 40.548,-6.1293377 38.045386,-2.7345096 35.542927,0.66031848 32.075893,3.2916185 31.953856,3.4092 31.758535,3.4092 Z"
         id="path10" />
    </g>
    <g
       style="stroke-linecap:butt; text-rendering:geometricPrecision; color-rendering:optimizeQuality; image-rendering:optimizeQuality; stroke-linejoin:round; color-interpolation:linearRGB; stroke-width:1.6;"
       id="g12">
      <line
         y2="386.26"
         style="fill:none;"
         x1="105.38"
         x2="858.3233"
         y1="386.26"
         id="line10" />
      <path
         d="M853.6566 381.26 L866.99 386.26 L858.3233 386.26 L853.6566 381.26 Z"
         style="fill:none; stroke-width:0.6667; fill-rule:evenodd;"
         id="path11" />
      <path
         d="M866.99 386.26 L853.6566 391.26 L858.3233 386.26 L866.99 386.26 Z"
         style="fill:none; stroke-width:0.6667; fill-rule:evenodd;"
         id="path12" />
    </g>
    <g
       style="text-rendering:optimizeSpeed; shape-rendering:crispEdges; color-interpolation:sRGB; color-rendering:optimizeSpeed; image-rendering:optimizeSpeed;"
       id="g13">
      <path
         style="stroke:none;"
         d="M866.99 386.26 L853.6566 381.26 L858.3233 386.26 L853.6566 391.26 Z"
         id="path13" />
    </g>
    <g
       style="stroke-linecap:butt; text-rendering:geometricPrecision; color-rendering:optimizeQuality; image-rendering:optimizeQuality; stroke-linejoin:round; color-interpolation:linearRGB; stroke-width:1.6;"
       id="g15">
      <line
         y2="41.2167"
         style="fill:none;"
         x1="124.54"
         x2="124.54"
         y1="407.96"
         id="line13" />
      <path
         d="M119.54 45.8833 L124.54 32.55 L124.54 41.2167 L119.54 45.8833 Z"
         style="fill:none; stroke-width:0.6667; fill-rule:evenodd;"
         id="path14" />
      <path
         d="M124.54 32.55 L129.54 45.8833 L124.54 41.2167 L124.54 32.55 Z"
         style="fill:none; stroke-width:0.6667; fill-rule:evenodd;"
         id="path15" />
    </g>
    <g
       style="text-rendering:optimizeSpeed; shape-rendering:crispEdges; color-interpolation:sRGB; color-rendering:optimizeSpeed; image-rendering:optimizeSpeed;"
       id="g16">
      <path
         style="stroke:none;"
         d="M124.54 32.55 L119.54 45.8833 L124.54 41.2167 L129.54 45.8833 Z"
         id="path16" />
    </g>
    <g
       style="stroke-linecap:butt; text-rendering:geometricPrecision; color-rendering:optimizeQuality; image-rendering:optimizeQuality; stroke-linejoin:round; color-interpolation:linearRGB; stroke-width:1.6;"
       id="g18">
      <line
         y2="386.26"
         style="fill:none;"
         x1="105.38"
         x2="858.3233"
         y1="386.26"
         id="line16" />
      <path
         d="M853.6566 381.26 L866.99 386.26 L858.3233 386.26 L853.6566 381.26 Z"
         style="fill:none; stroke-width:0.6667; fill-rule:evenodd;"
         id="path17" />
      <path
         d="M866.99 386.26 L853.6566 391.26 L858.3233 386.26 L866.99 386.26 Z"
         style="fill:none; stroke-width:0.6667; fill-rule:evenodd;"
         id="path18" />
    </g>
    <g
       style="text-rendering:optimizeSpeed; shape-rendering:crispEdges; color-interpolation:sRGB; color-rendering:optimizeSpeed; image-rendering:optimizeSpeed;"
       id="g19">
      <path
         style="stroke:none;"
         d="M866.99 386.26 L853.6566 381.26 L858.3233 386.26 L853.6566 391.26 Z"
         id="path19" />
    </g>
    <g
       style="stroke-linecap:butt; text-rendering:geometricPrecision; color-rendering:optimizeQuality; image-rendering:optimizeQuality; stroke-linejoin:round; color-interpolation:linearRGB; stroke-width:1.6;"
       id="g21">
      <line
         y2="41.2167"
         style="fill:none;"
         x1="124.54"
         x2="124.54"
         y1="399.28"
         id="line19" />
      <path
         d="M119.54 45.8833 L124.54 32.55 L124.54 41.2167 L119.54 45.8833 Z"
         style="fill:none; stroke-width:0.6667; fill-rule:evenodd;"
         id="path20" />
      <path
         d="M124.54 32.55 L129.54 45.8833 L124.54 41.2167 L124.54 32.55 Z"
         style="fill:none; stroke-width:0.6667; fill-rule:evenodd;"
         id="path21" />
    </g>
    <g
       style="text-rendering:optimizeSpeed; shape-rendering:crispEdges; color-interpolation:sRGB; color-rendering:optimizeSpeed; image-rendering:optimizeSpeed;"
       id="g22">
      <path
         style="stroke:none;"
         d="M124.54 32.55 L119.54 45.8833 L124.54 41.2167 L129.54 45.8833 Z"
         id="path22" />
    </g>
    <g
       style="stroke-linecap:butt; text-rendering:geometricPrecision; color-rendering:optimizeQuality; image-rendering:optimizeQuality; stroke-linejoin:round; color-interpolation:linearRGB; stroke-width:1.6;"
       id="g24">
      <line
         y2="386.26"
         style="fill:none;"
         x1="105.38"
         x2="858.3233"
         y1="386.26"
         id="line22" />
      <path
         d="M853.6566 381.26 L866.99 386.26 L858.3233 386.26 L853.6566 381.26 Z"
         style="fill:none; stroke-width:0.6667; fill-rule:evenodd;"
         id="path23" />
      <path
         d="M866.99 386.26 L853.6566 391.26 L858.3233 386.26 L866.99 386.26 Z"
         style="fill:none; stroke-width:0.6667; fill-rule:evenodd;"
         id="path24" />
    </g>
    <g
       style="text-rendering:optimizeSpeed; shape-rendering:crispEdges; color-interpolation:sRGB; color-rendering:optimizeSpeed; image-rendering:optimizeSpeed;"
       id="g25">
      <path
         style="stroke:none;"
         d="M866.99 386.26 L853.6566 381.26 L858.3233 386.26 L853.6566 391.26 Z"
         id="path25" />
    </g>
    <g
       style="stroke-linecap:butt; text-rendering:geometricPrecision; color-rendering:optimizeQuality; image-rendering:optimizeQuality; stroke-linejoin:round; color-interpolation:linearRGB; stroke-width:1.6;"
       id="g27">
      <line
         y2="41.2167"
         style="fill:none;"
         x1="124.54"
         x2="124.54"
         y1="407.96"
         id="line25" />
      <path
         d="M119.54 45.8833 L124.54 32.55 L124.54 41.2167 L119.54 45.8833 Z"
         style="fill:none; stroke-width:0.6667; fill-rule:evenodd;"
         id="path26" />
      <path
         d="M124.54 32.55 L129.54 45.8833 L124.54 41.2167 L124.54 32.55 Z"
         style="fill:none; stroke-width:0.6667; fill-rule:evenodd;"
         id="path27" />
    </g>
    <g
       style="text-rendering:optimizeSpeed; shape-rendering:crispEdges; color-interpolation:sRGB; color-rendering:optimizeSpeed; image-rendering:optimizeSpeed;"
       id="g28">
      <path
         style="stroke:none;"
         d="M124.54 32.55 L119.54 45.8833 L124.54 41.2167 L129.54 45.8833 Z"
         id="path28" />
    </g>
    <g
       style="stroke-linecap:butt; text-rendering:geometricPrecision; color-rendering:optimizeQuality; image-rendering:optimizeQuality; stroke-linejoin:round; color-interpolation:linearRGB; stroke-width:1.6;"
       id="g30">
      <line
         y2="386.26"
         style="fill:none;"
         x1="105.38"
         x2="858.3233"
         y1="386.26"
         id="line28" />
      <path
         d="M853.6566 381.26 L866.99 386.26 L858.3233 386.26 L853.6566 381.26 Z"
         style="fill:none; stroke-width:0.6667; fill-rule:evenodd;"
         id="path29" />
      <path
         d="M866.99 386.26 L853.6566 391.26 L858.3233 386.26 L866.99 386.26 Z"
         style="fill:none; stroke-width:0.6667; fill-rule:evenodd;"
         id="path30" />
    </g>
    <g
       style="text-rendering:optimizeSpeed; shape-rendering:crispEdges; color-interpolation:sRGB; color-rendering:optimizeSpeed; image-rendering:optimizeSpeed;"
       id="g31">
      <path
         style="stroke:none;"
         d="M866.99 386.26 L853.6566 381.26 L858.3233 386.26 L853.6566 391.26 Z"
         id="path31" />
    </g>
    <g
       style="stroke-linecap:butt; text-rendering:geometricPrecision; color-rendering:optimizeQuality; image-rendering:optimizeQuality; stroke-linejoin:round; color-interpolation:linearRGB; stroke-width:1.6;"
       id="g33">
      <line
         y2="41.2167"
         style="fill:none;"
         x1="124.54"
         x2="124.54"
         y1="407.96"
         id="line31" />
      <path
         d="M119.54 45.8833 L124.54 32.55 L124.54 41.2167 L119.54 45.8833 Z"
         style="fill:none; stroke-width:0.6667; fill-rule:evenodd;"
         id="path32" />
      <path
         d="M124.54 32.55 L129.54 45.8833 L124.54 41.2167 L124.54 32.55 Z"
         style="fill:none; stroke-width:0.6667; fill-rule:evenodd;"
         id="path33" />
    </g>
    <g
       style="text-rendering:optimizeSpeed; shape-rendering:crispEdges; color-interpolation:sRGB; color-rendering:optimizeSpeed; image-rendering:optimizeSpeed;"
       id="g34">
      <path
         style="stroke:none;"
         d="M124.54 32.55 L119.54 45.8833 L124.54 41.2167 L129.54 45.8833 Z"
         id="path34" />
    </g>
  </g>
</svg>
