<?xml version="1.0" encoding="UTF-8" standalone="no"?>
<svg
   style="fill-opacity:1; color-rendering:auto; color-interpolation:auto; text-rendering:auto; stroke:black; stroke-linecap:square; stroke-miterlimit:10; shape-rendering:auto; stroke-opacity:1; fill:black; stroke-dasharray:none; font-weight:normal; stroke-width:1; font-family:'Dialog'; font-style:normal; stroke-linejoin:miter; font-size:12px; stroke-dashoffset:0; image-rendering:auto;"
   width="958"
   height="434"
   version="1.1"
   id="svg41"
   sodipodi:docname="ifu.svg"
   inkscape:version="1.3.2 (091e20ef0f, 2023-11-25)"
   xmlns:inkscape="http://www.inkscape.org/namespaces/inkscape"
   xmlns:sodipodi="http://sodipodi.sourceforge.net/DTD/sodipodi-0.dtd"
   xmlns="http://www.w3.org/2000/svg"
   xmlns:svg="http://www.w3.org/2000/svg">
  <sodipodi:namedview
     id="namedview41"
     pagecolor="#505050"
     bordercolor="#eeeeee"
     borderopacity="1"
     inkscape:showpageshadow="0"
     inkscape:pageopacity="0"
     inkscape:pagecheckerboard="0"
     inkscape:deskcolor="#505050"
     inkscape:zoom="2.8284271"
     inkscape:cx="889.89388"
     inkscape:cy="319.43549"
     inkscape:window-width="1920"
     inkscape:window-height="1045"
     inkscape:window-x="0"
     inkscape:window-y="0"
     inkscape:window-maximized="1"
     inkscape:current-layer="svg41" />
  <!--Generated by the Batik Graphics2D SVG Generator-->
  <defs
     id="genericDefs">
    <marker
       style="overflow:visible"
       id="DartArrow"
       refX="0"
       refY="0"
       orient="auto-start-reverse"
       inkscape:stockid="Dart arrow"
       markerWidth="1"
       markerHeight="1"
       viewBox="0 0 1 1"
       inkscape:isstock="true"
       inkscape:collect="always"
       preserveAspectRatio="xMidYMid">
      <path
         style="fill:context-stroke;fill-rule:evenodd;stroke:none"
         d="M 0,0 5,-5 -12.5,0 5,5 Z"
         transform="scale(-0.5)"
         id="path44" />
    </marker>
    <marker
       style="overflow:visible"
       id="DartArrow-7"
       refX="0"
       refY="0"
       orient="auto-start-reverse"
       inkscape:stockid="Dart arrow"
       markerWidth="1"
       markerHeight="1"
       viewBox="0 0 1 1"
       inkscape:isstock="true"
       inkscape:collect="always"
       preserveAspectRatio="xMidYMid">
      <path
         style="fill:context-stroke;fill-rule:evenodd;stroke:none"
         d="M 0,0 5,-5 -12.5,0 5,5 Z"
         transform="scale(-0.5)"
         id="path44-5" />
    </marker>
    <marker
       style="overflow:visible"
       id="DartArrow-8"
       refX="0"
       refY="0"
       orient="auto-start-reverse"
       inkscape:stockid="Dart arrow"
       markerWidth="1"
       markerHeight="1"
       viewBox="0 0 1 1"
       inkscape:isstock="true"
       inkscape:collect="always"
       preserveAspectRatio="xMidYMid">
      <path
         style="fill:context-stroke;fill-rule:evenodd;stroke:none"
         d="M 0,0 5,-5 -12.5,0 5,5 Z"
         transform="scale(-0.5)"
         id="path44-0" />
    </marker>
    <marker
       style="overflow:visible"
       id="DartArrow-1"
       refX="0"
       refY="0"
       orient="auto-start-reverse"
       inkscape:stockid="Dart arrow"
       markerWidth="1"
       markerHeight="1"
       viewBox="0 0 1 1"
       inkscape:isstock="true"
       inkscape:collect="always"
       preserveAspectRatio="xMidYMid">
      <path
         style="fill:context-stroke;fill-rule:evenodd;stroke:none"
         d="M 0,0 5,-5 -12.5,0 5,5 Z"
         transform="scale(-0.5)"
         id="path44-3" />
    </marker>
    <marker
       style="overflow:visible"
       id="DartArrow-7-2"
       refX="0"
       refY="0"
       orient="auto-start-reverse"
       inkscape:stockid="Dart arrow"
       markerWidth="1"
       markerHeight="1"
       viewBox="0 0 1 1"
       inkscape:isstock="true"
       inkscape:collect="always"
       preserveAspectRatio="xMidYMid">
      <path
         style="fill:context-stroke;fill-rule:evenodd;stroke:none"
         d="M 0,0 5,-5 -12.5,0 5,5 Z"
         transform="scale(-0.5)"
         id="path44-5-7" />
    </marker>
    <marker
       style="overflow:visible"
       id="DartArrow-8-3"
       refX="0"
       refY="0"
       orient="auto-start-reverse"
       inkscape:stockid="Dart arrow"
       markerWidth="1"
       markerHeight="1"
       viewBox="0 0 1 1"
       inkscape:isstock="true"
       inkscape:collect="always"
       preserveAspectRatio="xMidYMid">
      <path
         style="fill:context-stroke;fill-rule:evenodd;stroke:none"
         d="M 0,0 5,-5 -12.5,0 5,5 Z"
         transform="scale(-0.5)"
         id="path44-0-3" />
    </marker>
    <marker
       style="overflow:visible"
       id="DartArrow-6"
       refX="0"
       refY="0"
       orient="auto-start-reverse"
       inkscape:stockid="Dart arrow"
       markerWidth="1"
       markerHeight="1"
       viewBox="0 0 1 1"
       inkscape:isstock="true"
       inkscape:collect="always"
       preserveAspectRatio="xMidYMid">
      <path
         style="fill:context-stroke;fill-rule:evenodd;stroke:none"
         d="M 0,0 5,-5 -12.5,0 5,5 Z"
         transform="scale(-0.5)"
         id="path44-09" />
    </marker>
    <marker
       style="overflow:visible"
       id="DartArrow-7-1"
       refX="0"
       refY="0"
       orient="auto-start-reverse"
       inkscape:stockid="Dart arrow"
       markerWidth="1"
       markerHeight="1"
       viewBox="0 0 1 1"
       inkscape:isstock="true"
       inkscape:collect="always"
       preserveAspectRatio="xMidYMid">
      <path
         style="fill:context-stroke;fill-rule:evenodd;stroke:none"
         d="M 0,0 5,-5 -12.5,0 5,5 Z"
         transform="scale(-0.5)"
         id="path44-5-9" />
    </marker>
    <marker
       style="overflow:visible"
       id="DartArrow-8-1"
       refX="0"
       refY="0"
       orient="auto-start-reverse"
       inkscape:stockid="Dart arrow"
       markerWidth="1"
       markerHeight="1"
       viewBox="0 0 1 1"
       inkscape:isstock="true"
       inkscape:collect="always"
       preserveAspectRatio="xMidYMid">
      <path
         style="fill:context-stroke;fill-rule:evenodd;stroke:none"
         d="M 0,0 5,-5 -12.5,0 5,5 Z"
         transform="scale(-0.5)"
         id="path44-0-5" />
    </marker>
  </defs>
  <g
     id="g41">
    <defs
       id="defs1">
      <clipPath
         clipPathUnits="userSpaceOnUse"
         id="clipPath1">
        <path
           d="M0 0 L958 0 L958 434 L0 434 L0 0 Z"
           id="path1" />
      </clipPath>
    </defs>
    <g
       style="fill:white; stroke:white;"
       id="g1">
      <rect
         x="0"
         y="0"
         width="958"
         style="clip-path:url(#clipPath1); stroke:none;"
         height="434"
         clip-path="url(#clipPath1)"
         id="rect1" />
    </g>
    <g
       style="fill:white; text-rendering:optimizeSpeed; color-rendering:optimizeSpeed; image-rendering:optimizeSpeed; shape-rendering:crispEdges; stroke:white; color-interpolation:sRGB;"
       id="g2">
      <rect
         x="0"
         width="958"
         height="434"
         y="0"
         style="stroke:none;"
         id="rect2" />
    </g>
    <g
       style="fill:rgb(38,38,38); text-rendering:geometricPrecision; image-rendering:optimizeQuality; color-rendering:optimizeQuality; stroke-linejoin:round; stroke:rgb(38,38,38); color-interpolation:linearRGB; stroke-width:0.6667;"
       id="g5">
      <line
         y2="386"
         style="fill:none;"
         x1="125"
         x2="867"
         y1="386"
         id="line2" />
      <line
         y2="33"
         style="fill:none;"
         x1="125"
         x2="125"
         y1="386"
         id="line4" />
    </g>
    <g
       style="stroke-linecap:butt; text-rendering:geometricPrecision; color-rendering:optimizeQuality; image-rendering:optimizeQuality; stroke-linejoin:round; color-interpolation:linearRGB; stroke-width:1.3333;"
       id="g6">
      <path
         d="M125 268.3333 L126.1593 254.0497 L127.3186 240.8395 L128.4778 228.6224 L129.6371 217.3233 L130.7301 207.4486 L131.8231 198.2751 L132.9161 189.7532 L134.0092 181.8364 L135.164 174.0816 L136.3188 166.9073 L137.4736 160.2704 L138.6284 154.1304 L139.8439 148.1633 L141.0594 142.6655 L142.275 137.6002 L143.4905 132.9333 L144.7758 128.3967 L146.0612 124.2366 L147.3465 120.4217 L148.6319 116.9235 L149.9967 113.5256 L151.3616 110.4264 L152.7265 107.5997 L154.0914 105.0213 L155.5473 102.5201 L157.0033 100.2526 L158.4592 98.1972 L159.9151 96.3338 L161.4756 94.5293 L163.0361 92.9049 L164.5966 91.4429 L166.1571 90.1268 L167.163 89.3488 L168.1689 88.6218 L169.1747 87.9425 L170.1806 87.3077 L170.1806 358.8462 L171.0263 343.3025 L171.8721 328.6199 L172.7178 314.7507 L173.5635 301.65 L174.5965 286.6294 L175.6294 272.6189 L176.6623 259.5507 L177.6952 247.3612 L178.7622 235.6293 L179.8292 224.7113 L180.8962 214.5511 L181.9632 205.0957 L183.0802 195.899 L184.1971 187.3691 L185.3141 179.458 L186.4311 172.1204 L187.6042 164.9859 L188.7773 158.3937 L189.9505 152.3029 L191.1236 146.6749 L192.3606 141.2029 L193.5976 136.1685 L194.8346 131.5369 L196.0717 127.2758 L197.3814 123.1347 L198.6912 119.3434 L200.001 115.8726 L201.3108 112.695 L202.7036 109.6096 L204.0964 106.8008 L205.4892 104.2437 L206.882 101.9157 L208.37 99.6584 L209.8579 97.6165 L211.3459 95.7696 L212.8338 94.0988 L214.4313 92.482 L216.0287 91.0301 L217.6262 89.7266 L219.2236 88.5562 L219.703 88.2288 L220.1823 87.9118 L220.6616 87.6048 L221.1409 87.3077 L221.1409 358.8462 L221.9866 343.3025 L222.8324 328.6199 L223.6781 314.7507 L224.5238 301.65 L225.5567 286.6294 L226.5897 272.6189 L227.6226 259.5507 L228.6555 247.3612 L229.7225 235.6293 L230.7895 224.7113 L231.8565 214.5511 L232.9235 205.0957 L234.0405 195.899 L235.1575 187.3691 L236.2744 179.458 L237.3914 172.1204 L238.5645 164.9859 L239.7377 158.3937 L240.9108 152.3029 L242.0839 146.6749 L243.3209 141.2029 L244.5579 136.1685 L245.7949 131.5369 L247.032 127.2758 L248.3418 123.1347 L249.6515 119.3434 L250.9613 115.8726 L252.2711 112.695 L253.6639 109.6096 L255.0567 106.8008 L256.4495 104.2437 L257.8423 101.9157 L259.3303 99.6584 L260.8182 97.6165 L262.3062 95.7696 L263.7941 94.0988 L265.3916 92.482 L266.989 91.0301 L268.5865 89.7266 L270.184 88.5562 L270.6633 88.2288 L271.1427 87.9117 L271.6221 87.6048 L272.1014 87.3077 L272.1014 358.8462 L272.3846 353.5432 L272.6677 348.3405 L272.9509 343.2362 L273.234 338.2283 L273.2689 337.618 L273.3038 337.0091 L273.3387 336.4016 L273.3735 335.7956 L273.3798 335.687 L273.386 335.5788 L273.3923 335.4703 L273.3985 335.3621 L273.4048 335.297 L273.411 335.2737 L273.4173 335.2506 L273.4236 335.2201 L273.4298 335.1918 L273.4361 335.1635 L273.4424 335.1352 L273.4487 335.1067 L273.4802 334.9653 L273.5117 334.8241 L273.5432 334.6833 L273.5746 334.5428 L273.732 333.8444 L273.8893 333.1534 L274.0467 332.4697 L274.204 331.7933 L274.9908 328.5164 L275.7776 325.4088 L276.5644 322.4616 L277.3511 319.6667 L278.7374 315.0884 L280.1237 310.9185 L281.5099 307.1207 L282.8962 303.6616 L284.3218 300.4255 L285.7475 297.4859 L287.1731 294.8158 L288.5987 292.3902 L290.1297 290.0319 L291.6607 287.9048 L293.1917 285.9865 L294.7227 284.2562 L296.3693 282.5838 L298.016 281.087 L299.6626 279.7477 L301.3093 278.549 L303.0909 277.3932 L304.8727 276.3681 L306.6543 275.4592 L308.436 274.6532 L310.3759 273.8787 L312.3158 273.199 L314.2557 272.6029 L316.1956 272.0797 L318.3229 271.5794 L320.4501 271.1458 L322.5774 270.7703 L324.7047 270.4449 L327.0566 270.1353 L329.4085 269.8712 L331.7604 269.6458 L334.1123 269.4536 L336.7375 269.2718 L339.3628 269.1196 L341.988 268.9923 L344.6132 268.8855 L347.5768 268.7854 L350.5404 268.7035 L353.504 268.6366 L356.4676 268.5818 L359.859 268.531 L363.2504 268.4905 L366.6418 268.4585 L370.0332 268.433 L373.9793 268.4096 L377.9254 268.3918 L381.8715 268.3782 L385.8175 268.3679 L390.5054 268.3583 L395.1933 268.3516 L399.8812 268.3467 L404.5691 268.3431 L410.2878 268.34 L416.0064 268.3377 L421.7251 268.3364 L427.4438 268.3355 L434.6633 268.3346 L441.8828 268.334 L449.1023 268.3339 L456.3218 268.3337 L465.8395 268.3335 L475.3572 268.3333 L484.8749 268.3333 L494.3925 268.3335 L507.4037 268.3332 L520.4148 268.3332 L533.4259 268.3333 L546.437 268.3335 L548.2038 268.3335 L549.9705 268.3335 L551.7373 268.3335 L553.5041 268.3335 L555.2708 268.3335 L557.0376 268.3335 L558.8044 268.3333 L560.5711 268.3333 L561.4545 268.3333 L562.3379 268.3333 L563.2213 268.3333 L564.1047 268.3333 L564.988 268.3333 L565.8714 268.3333 L566.7548 268.3333 L567.6382 268.3333 L568.2487 268.3333 L568.8593 268.3333 L569.4698 268.3333 L570.0803 268.3333 L570.0986 268.3333 L570.1168 268.3333 L570.135 268.3333 L570.1533 268.3333 L570.1594 268.3333 L570.1655 268.3333 L570.1717 268.3333 L570.1779 268.3333 L570.1815 268.3333 L570.1851 268.3333 L570.1887 268.3333 L570.1924 268.3333 L570.196 268.339 L570.1996 268.3321 L570.2032 268.2976 L570.2068 268.2478 L570.2103 268.2047 L570.2136 268.1617 L570.217 268.1186 L570.2203 268.0755 L570.2372 267.8603 L570.254 267.6453 L570.2709 267.4305 L570.2877 267.216 L570.3719 266.147 L570.4561 265.0841 L570.5403 264.0272 L570.6245 262.9763 L571.0454 257.8101 L571.4664 252.7883 L571.8873 247.9072 L572.3083 243.1624 L573.4237 231.2215 L574.5392 220.1454 L575.6546 209.8714 L576.77 200.3414 L577.8907 191.4613 L579.0114 183.2272 L580.132 175.5921 L581.2527 168.5124 L582.4337 161.6078 L583.6147 155.2315 L584.7958 149.3431 L585.9768 143.9051 L587.2225 138.6192 L588.4682 133.7589 L589.7139 129.2902 L590.9597 125.1812 L592.2794 121.1883 L593.5991 117.5351 L594.9188 114.193 L596.2385 111.1353 L597.6427 108.1667 L599.0469 105.4663 L600.4511 103.0098 L601.8552 100.7751 L603.3563 98.6087 L604.8572 96.6508 L606.3582 94.8814 L607.8592 93.2822 L609.4717 91.7349 L611.0843 90.347 L612.6968 89.1022 L614.3093 87.9855 L614.5772 87.8115 L614.8451 87.6405 L615.113 87.4726 L615.381 87.3077 L615.381 358.8462 L616.2267 343.3025 L617.0724 328.6199 L617.9182 314.7507 L618.7639 301.65 L619.7968 286.6294 L620.8298 272.6189 L621.8627 259.5507 L622.8956 247.3612 L623.9626 235.6293 L625.0295 224.7113 L626.0966 214.5511 L627.1635 205.0957 L628.2805 195.899 L629.3975 187.3691 L630.5145 179.458 L631.6315 172.1204 L632.8046 164.9859 L633.9777 158.3937 L635.1508 152.3029 L636.324 146.6749 L637.561 141.2029 L638.798 136.1685 L640.035 131.5369 L641.272 127.2758 L642.5818 123.1347 L643.8916 119.3434 L645.2014 115.8726 L646.5111 112.695 L647.9039 109.6096 L649.2968 106.8008 L650.6896 104.2437 L652.0824 101.9157 L653.5703 99.6584 L655.0583 97.6165 L656.5463 95.7696 L658.0342 94.0988 L659.6317 92.482 L661.2291 91.0301 L662.8265 89.7266 L664.424 88.5562 L664.9033 88.2288 L665.3826 87.9118 L665.8619 87.6048 L666.3413 87.3077 L666.3413 358.8462 L667.187 343.3025 L668.0327 328.6199 L668.8784 314.7507 L669.7242 301.65 L670.7571 286.6294 L671.79 272.6189 L672.823 259.5507 L673.8559 247.3612 L674.9229 235.6293 L675.9899 224.7113 L677.0568 214.5511 L678.1238 205.0957 L679.2408 195.899 L680.3578 187.3691 L681.4748 179.458 L682.5918 172.1204 L683.7649 164.9859 L684.938 158.3937 L686.1111 152.3029 L687.2842 146.6749 L688.5213 141.2029 L689.7583 136.1685 L690.9953 131.5369 L692.2323 127.2758 L693.5421 123.1347 L694.8519 119.3434 L696.1617 115.8726 L697.4714 112.695 L698.8643 109.6096 L700.2571 106.8008 L701.6499 104.2437 L703.0427 101.9157 L704.5307 99.6584 L706.0186 97.6165 L707.5066 95.7696 L708.9945 94.0988 L710.5919 92.482 L712.1894 91.0301 L713.7869 89.7266 L715.3843 88.5562 L715.8636 88.2288 L716.343 87.9118 L716.8223 87.6048 L717.3016 87.3077 L717.3016 358.8462 L718.1473 343.3025 L718.993 328.6199 L719.8387 314.7507 L720.6845 301.65 L721.7174 286.6294 L722.7504 272.6189 L723.7833 259.5507 L724.8162 247.3612 L725.8832 235.6293 L726.9501 224.7113 L728.0172 214.5511 L729.0841 205.0957 L730.2012 195.899 L731.3181 187.3691 L732.4351 179.458 L733.5521 172.1204 L734.7252 164.9859 L735.8984 158.3937 L737.0714 152.3029 L738.2446 146.6749 L739.4816 141.2029 L740.7186 136.1685 L741.9556 131.5369 L743.1926 127.2758 L744.5024 123.1347 L745.8122 119.3434 L747.122 115.8726 L748.4318 112.695 L749.8245 109.6096 L751.2174 106.8008 L752.6102 104.2437 L754.003 101.9157 L755.491 99.6584 L756.9789 97.6165 L758.4669 95.7696 L759.9548 94.0988 L761.5522 92.482 L763.1497 91.0301 L764.7471 89.7266 L766.3446 88.5562 L766.8239 88.2288 L767.3033 87.9118 L767.7826 87.6048 L768.2619 87.3077 L768.2619 358.8462 L769.1077 343.3025 L769.9534 328.6199 L770.7991 314.7507 L771.6448 301.65 L772.6777 286.6294 L773.7107 272.6189 L774.7436 259.5507 L775.7765 247.3612 L776.8435 235.6293 L777.9105 224.7113 L778.9775 214.5511 L780.0444 205.0957 L781.1615 195.899 L782.2784 187.3691 L783.3954 179.458 L784.5124 172.1204 L785.6855 164.9859 L786.8586 158.3937 L788.0317 152.3029 L789.2048 146.6749 L790.4419 141.2029 L791.6789 136.1685 L792.916 131.5369 L794.153 127.2758 L795.4627 123.1347 L796.7725 119.3434 L798.0823 115.8726 L799.3921 112.695 L800.7849 109.6096 L802.1777 106.8008 L803.5705 104.2437 L804.9634 101.9157 L806.4513 99.6584 L807.9393 97.6165 L809.4272 95.7696 L810.9151 94.0988 L812.5126 92.482 L814.11 91.0301 L815.7075 89.7266 L817.3049 88.5562 L817.7842 88.2288 L818.2635 87.9118 L818.7429 87.6048 L819.2222 87.3077 L819.2222 358.8462 L820.0679 343.3025 L820.9136 328.6199 L821.7594 314.7507 L822.6051 301.65 L823.638 286.6294 L824.671 272.6189 L825.7039 259.5507 L826.7368 247.3612 L827.8038 235.6293 L828.8708 224.7113 L829.9377 214.5511 L831.0048 205.0957 L832.1218 195.899 L833.2388 187.3691 L834.3557 179.458 L835.4727 172.1204 L836.6458 164.9859 L837.819 158.3937 L838.9921 152.3029 L840.1652 146.6749 L841.3596 141.3837 L842.5541 136.5017 L843.7485 131.9975 L844.9429 127.8415 L846.1374 124.0068 L847.3318 120.4687 L848.5263 117.2043 L849.7207 114.1924 L850.9152 111.4132 L852.1096 108.849 L853.3041 106.4832 L854.4985 104.3004 L855.693 102.2862 L856.8874 100.4279 L858.0818 98.7133 L859.2763 97.1314 L860.4708 95.6716 L861.6652 94.3248 L862.8597 93.0822 L864.0541 91.9357 L864.7906 91.2734 L865.527 90.6432 L866.2635 90.0434 L867 89.4727"
         style="fill:none; fill-rule:evenodd;"
         id="path5" />
    </g>
    <g
       transform="translate(852.16,386)"
       style="font-size:40px; text-rendering:geometricPrecision; color-rendering:optimizeQuality; image-rendering:optimizeQuality; font-family:'mwa_cmmi10'; color-interpolation:linearRGB;"
       id="g7">
      <path
         style="stroke:none;stroke-width:1.6694"
         d="m 41.851941,33.92646 q 0,-0.965245 0.182632,-1.852028 l 4.825553,-19.171999 h -6.990591 q -0.704318,0 -0.704318,-0.886782 0.26076,-1.460721 0.886783,-1.460721 h 7.408107 l 2.660514,-10.87727538 q 0.260926,-0.88678302 1.043372,-1.51280602 0.782446,-0.6260231 1.773732,-0.6260231 0.834698,0 1.408636,0.5086646 0.57377,0.5086647 0.57377,1.36940462 0,0.182632 -0.01302,0.2999898 -0.01302,0.117359 -0.03923,0.247739 L 52.181327,10.55493 h 6.886254 q 0.678108,0 0.678108,0.886783 -0.02604,0.156589 -0.130379,0.547729 -0.104336,0.391306 -0.26076,0.652232 -0.156589,0.260759 -0.495644,0.260759 h -7.251521 l -4.799511,19.302379 q -0.495643,1.904112 -0.495643,3.260496 0,2.869356 1.956363,2.869356 2.947651,0 5.203839,-2.751998 2.256354,-2.75183 3.48219,-6.038369 0.260926,-0.391305 0.521853,-0.391305 h 0.808488 q 0.260927,0 0.417349,0.169443 0.156589,0.16961 0.156589,0.404327 0,0.130547 -0.05225,0.208675 -1.46072,4.043107 -4.264803,7.10795 -2.804082,3.065009 -6.429674,3.065009 -2.634639,0 -4.447435,-1.734668 -1.812801,-1.734502 -1.812801,-4.447268 z"
         id="path6" />
    </g>
    <g
       transform="translate(50.8,69.2051)"
       style="font-size:40px; text-rendering:geometricPrecision; color-rendering:optimizeQuality; image-rendering:optimizeQuality; font-family:'mwa_cmmi10'; color-interpolation:linearRGB;"
       id="g10">
      <path
         style="stroke:none;stroke-width:1.5036"
         d="m -45.365549,-28.525447 q 0,-1.973481 0.528517,-4.040937 0.528667,-2.067455 1.491876,-4.604787 0.963359,-2.537332 1.668099,-4.416837 0.775258,-2.208494 0.775258,-3.618123 0,-1.78553 -1.315654,-1.78553 -2.372837,0 -3.911626,2.455085 -1.538939,2.455235 -2.290741,5.462443 -0.117431,0.399358 -0.493332,0.399358 h -0.70489 q -0.493332,0 -0.493332,-0.563852 v -0.18795 q 0.963359,-3.57106 2.960295,-6.343406 1.996937,-2.772195 5.051058,-2.772195 2.137975,0 3.629851,1.409629 1.491876,1.409629 1.491876,3.57106 0,1.127703 -0.516789,2.349382 -0.25847,0.728345 -1.198222,3.195158 -0.939753,2.466813 -1.433085,4.087849 -0.493483,1.621186 -0.822321,3.171703 -0.328989,1.550667 -0.328989,3.124639 0,1.997087 0.857505,3.371382 0.857656,1.374444 2.760618,1.374444 3.852985,0 6.742762,-4.745826 0.07037,-0.234863 0.117432,-0.458148 0.04691,-0.223135 0.07052,-0.434541 l 4.322862,-17.432486 q 0.18795,-0.798715 0.927874,-1.374294 0.740074,-0.57558 1.585851,-0.57558 0.728346,0 1.28047,0.469876 0.552123,0.469877 0.552123,1.245135 0,0.352445 -0.07052,0.469876 l -4.346318,17.314904 q -0.399508,1.78553 -0.399508,2.936689 0,2.584395 1.715161,2.584395 1.950025,0 2.901505,-2.396444 0.951481,-2.396294 1.632764,-5.520934 0.117432,-0.352445 0.469876,-0.352445 h 0.728346 q 0.234863,0 0.387629,0.199679 0.152767,0.199679 0.152767,0.387629 -0.657978,2.584395 -1.257014,4.428565 -0.599035,1.844321 -1.891233,3.347925 -1.292197,1.503605 -3.242071,1.503605 -1.903112,0 -3.418444,-1.045456 -1.515333,-1.045456 -2.032121,-2.830986 -1.386173,1.761923 -3.207038,2.819257 -1.820714,1.057185 -3.841257,1.057185 -3.476934,0 -5.532662,-1.902962 -2.055728,-1.903112 -2.055728,-5.333133 z"
         id="path7" />
      <path
         style="stroke:none;stroke-width:1.5036"
         d="m 1.3517333,-7.052176 q -3.359653,-2.6313073 -5.779554,-6.061329 -2.4199,-3.430172 -3.958689,-7.306614 -1.5387882,-3.876442 -2.3023183,-8.105328 -0.763681,-4.228887 -0.763681,-8.48123 0,-4.322862 0.763681,-8.551749 0.7635301,-4.228886 2.3375033,-8.128935 1.574123,-3.899898 4.005751,-7.306614 2.431629,-3.406565 5.697307,-5.967353 0,-0.117432 0.281926,-0.117432 h 0.563851 q 0.187951,0 0.328838,0.164344 0.141039,0.164494 0.141039,0.352445 0,0.281926 -0.117582,0.399357 -2.93668998,2.866321 -4.886714,6.155455 -1.949874,3.289134 -3.136368,7.001081 -1.186494,3.712098 -1.715011,7.694244 -0.528667,3.982295 -0.528667,8.305157 0,19.12389 10.219847,29.0383549 0.164495,0.1879506 0.164495,0.5167888 0,0.1410381 -0.164495,0.3289886 -0.164494,0.1879505 -0.305382,0.1879505 h -0.563851 q -0.281926,0 -0.281926,-0.1175818 z"
         id="path8" />
      <path
         style="stroke:none;stroke-width:1.5036"
         d="m 9.8225883,-26.857349 q 0,-0.869384 0.164494,-1.668098 L 14.3334,-45.793439 H 8.0370583 q -0.634371,0 -0.634371,-0.798714 0.235013,-1.315654 0.798865,-1.315654 h 6.6722427 l 2.396294,-9.797034 q 0.235014,-0.798714 0.939753,-1.362566 0.70489,-0.563851 1.597579,-0.563851 0.751802,0 1.268741,0.458148 0.516789,0.458148 0.516789,1.233406 0,0.164495 -0.01173,0.270198 -0.01173,0.105704 -0.03518,0.223135 l -2.419901,9.538564 h 6.202367 q 0.610764,0 0.610764,0.798715 -0.02346,0.141038 -0.117431,0.493332 -0.09398,0.352445 -0.234863,0.587458 -0.141038,0.234863 -0.44642,0.234863 h -6.531356 l -4.322862,17.385423 q -0.446269,1.715011 -0.446269,2.936689 0,2.584395 1.761923,2.584395 2.654914,0 4.687035,-2.478691 2.032271,-2.478541 3.136518,-5.438687 0.234863,-0.352445 0.469876,-0.352445 h 0.728196 q 0.235013,0 0.375901,0.152616 0.141038,0.152766 0.141038,0.364173 0,0.117582 -0.04706,0.187951 -1.315654,3.641579 -3.841107,6.402045 -2.525604,2.760618 -5.791282,2.760618 -2.372838,0 -4.005752,-1.562396 -1.6327627,-1.562244 -1.6327627,-4.005601 z"
         id="path9" />
      <path
         style="stroke:none;stroke-width:1.5036"
         d="m 31.705742,-6.9345942 q -0.516789,0 -0.516789,-0.5169391 0,-0.2819258 0.117431,-0.3993573 10.26676,-10.0318964 10.26676,-29.1557864 0,-19.12404 -10.149328,-29.038355 -0.234863,-0.164494 -0.234863,-0.516939 0,-0.187951 0.164494,-0.352445 0.164344,-0.164344 0.352295,-0.164344 h 0.563851 q 0.187951,0 0.305533,0.117432 4.299255,3.406565 7.177304,8.281551 2.878048,4.874985 4.217158,10.396069 1.33911,5.520934 1.33911,11.277031 0,4.252343 -0.716618,8.375526 -0.716467,4.123184 -2.29059,8.140513 -1.574123,4.01748 -3.982146,7.412317 -2.408172,3.3948377 -5.744218,6.026145 -0.117582,0.1175818 -0.305533,0.1175818 z"
         id="path10" />
    </g>
    <g
       style="stroke-linecap:butt; text-rendering:geometricPrecision; color-rendering:optimizeQuality; image-rendering:optimizeQuality; stroke-linejoin:round; color-interpolation:linearRGB; stroke-width:1.6;"
       id="g12">
      <line
         y2="386.26"
         style="fill:none;"
         x1="114.96"
         x2="858.3233"
         y1="386.26"
         id="line10" />
      <path
         d="M853.6566 381.26 L866.99 386.26 L858.3233 386.26 L853.6566 381.26 Z"
         style="fill:none; stroke-width:0.6667; fill-rule:evenodd;"
         id="path11" />
      <path
         d="M866.99 386.26 L853.6566 391.26 L858.3233 386.26 L866.99 386.26 Z"
         style="fill:none; stroke-width:0.6667; fill-rule:evenodd;"
         id="path12" />
    </g>
    <g
       style="text-rendering:optimizeSpeed; shape-rendering:crispEdges; color-interpolation:sRGB; color-rendering:optimizeSpeed; image-rendering:optimizeSpeed;"
       id="g13">
      <path
         style="stroke:none;"
         d="M866.99 386.26 L853.6566 381.26 L858.3233 386.26 L853.6566 391.26 Z"
         id="path13" />
    </g>
    <g
       style="stroke-linecap:butt; text-rendering:geometricPrecision; color-rendering:optimizeQuality; image-rendering:optimizeQuality; stroke-linejoin:round; color-interpolation:linearRGB; stroke-width:1.6;"
       id="g15">
      <line
         y2="41.2167"
         style="fill:none;"
         x1="124.54"
         x2="124.54"
         y1="390.6"
         id="line13" />
      <path
         d="M119.54 45.8833 L124.54 32.55 L124.54 41.2167 L119.54 45.8833 Z"
         style="fill:none; stroke-width:0.6667; fill-rule:evenodd;"
         id="path14" />
      <path
         d="M124.54 32.55 L129.54 45.8833 L124.54 41.2167 L124.54 32.55 Z"
         style="fill:none; stroke-width:0.6667; fill-rule:evenodd;"
         id="path15" />
    </g>
    <g
       style="text-rendering:optimizeSpeed; shape-rendering:crispEdges; color-interpolation:sRGB; color-rendering:optimizeSpeed; image-rendering:optimizeSpeed;"
       id="g16">
      <path
         style="stroke:none;"
         d="M124.54 32.55 L119.54 45.8833 L124.54 41.2167 L129.54 45.8833 Z"
         id="path16" />
    </g>
    <g
       style="stroke-linecap:butt; text-rendering:geometricPrecision; color-rendering:optimizeQuality; image-rendering:optimizeQuality; stroke-linejoin:round; color-interpolation:linearRGB; stroke-width:1.6;"
       id="g18">
      <line
         y2="386.26"
         style="fill:none;"
         x1="114.96"
         x2="858.3233"
         y1="386.26"
         id="line16" />
      <path
         d="M853.6566 381.26 L866.99 386.26 L858.3233 386.26 L853.6566 381.26 Z"
         style="fill:none; stroke-width:0.6667; fill-rule:evenodd;"
         id="path17" />
      <path
         d="M866.99 386.26 L853.6566 391.26 L858.3233 386.26 L866.99 386.26 Z"
         style="fill:none; stroke-width:0.6667; fill-rule:evenodd;"
         id="path18" />
    </g>
    <g
       style="text-rendering:optimizeSpeed; shape-rendering:crispEdges; color-interpolation:sRGB; color-rendering:optimizeSpeed; image-rendering:optimizeSpeed;"
       id="g19">
      <path
         style="stroke:none;"
         d="M866.99 386.26 L853.6566 381.26 L858.3233 386.26 L853.6566 391.26 Z"
         id="path19" />
    </g>
    <g
       style="stroke-linecap:butt; text-rendering:geometricPrecision; color-rendering:optimizeQuality; image-rendering:optimizeQuality; stroke-linejoin:round; color-interpolation:linearRGB; stroke-width:1.6;"
       id="g21">
      <line
         y2="41.2167"
         style="fill:none;"
         x1="124.54"
         x2="124.54"
         y1="390.6"
         id="line19" />
      <path
         d="M119.54 45.8833 L124.54 32.55 L124.54 41.2167 L119.54 45.8833 Z"
         style="fill:none; stroke-width:0.6667; fill-rule:evenodd;"
         id="path20" />
      <path
         d="M124.54 32.55 L129.54 45.8833 L124.54 41.2167 L124.54 32.55 Z"
         style="fill:none; stroke-width:0.6667; fill-rule:evenodd;"
         id="path21" />
    </g>
    <g
       style="text-rendering:optimizeSpeed; shape-rendering:crispEdges; color-interpolation:sRGB; color-rendering:optimizeSpeed; image-rendering:optimizeSpeed;"
       id="g22">
      <path
         style="stroke:none;"
         d="M124.54 32.55 L119.54 45.8833 L124.54 41.2167 L129.54 45.8833 Z"
         id="path22" />
    </g>
    <g
       style="stroke-linecap:butt; text-rendering:geometricPrecision; color-rendering:optimizeQuality; image-rendering:optimizeQuality; stroke-linejoin:round; color-interpolation:linearRGB; stroke-width:1.6;"
       id="g24">
      <line
         y2="386.26"
         style="fill:none;"
         x1="114.96"
         x2="858.3233"
         y1="386.26"
         id="line22" />
      <path
         d="M853.6566 381.26 L866.99 386.26 L858.3233 386.26 L853.6566 381.26 Z"
         style="fill:none; stroke-width:0.6667; fill-rule:evenodd;"
         id="path23" />
      <path
         d="M866.99 386.26 L853.6566 391.26 L858.3233 386.26 L866.99 386.26 Z"
         style="fill:none; stroke-width:0.6667; fill-rule:evenodd;"
         id="path24" />
    </g>
    <g
       style="text-rendering:optimizeSpeed; shape-rendering:crispEdges; color-interpolation:sRGB; color-rendering:optimizeSpeed; image-rendering:optimizeSpeed;"
       id="g25">
      <path
         style="stroke:none;"
         d="M866.99 386.26 L853.6566 381.26 L858.3233 386.26 L853.6566 391.26 Z"
         id="path25" />
    </g>
    <g
       style="stroke-linecap:butt; text-rendering:geometricPrecision; color-rendering:optimizeQuality; image-rendering:optimizeQuality; stroke-linejoin:round; color-interpolation:linearRGB; stroke-width:1.6;"
       id="g27">
      <line
         y2="41.2167"
         style="fill:none;"
         x1="124.54"
         x2="124.54"
         y1="394.94"
         id="line25" />
      <path
         d="M119.54 45.8833 L124.54 32.55 L124.54 41.2167 L119.54 45.8833 Z"
         style="fill:none; stroke-width:0.6667; fill-rule:evenodd;"
         id="path26" />
      <path
         d="M124.54 32.55 L129.54 45.8833 L124.54 41.2167 L124.54 32.55 Z"
         style="fill:none; stroke-width:0.6667; fill-rule:evenodd;"
         id="path27" />
    </g>
    <g
       style="text-rendering:optimizeSpeed; shape-rendering:crispEdges; color-interpolation:sRGB; color-rendering:optimizeSpeed; image-rendering:optimizeSpeed;"
       id="g28">
      <path
         style="stroke:none;"
         d="M124.54 32.55 L119.54 45.8833 L124.54 41.2167 L129.54 45.8833 Z"
         id="path28" />
    </g>
    <g
       style="stroke-linecap:butt; text-rendering:geometricPrecision; color-rendering:optimizeQuality; image-rendering:optimizeQuality; stroke-linejoin:round; color-interpolation:linearRGB; stroke-width:1.6;"
       id="g30">
      <line
         y2="386.26"
         style="fill:none;"
         x1="114.96"
         x2="858.3233"
         y1="386.26"
         id="line28" />
      <path
         d="M853.6566 381.26 L866.99 386.26 L858.3233 386.26 L853.6566 381.26 Z"
         style="fill:none; stroke-width:0.6667; fill-rule:evenodd;"
         id="path29" />
      <path
         d="M866.99 386.26 L853.6566 391.26 L858.3233 386.26 L866.99 386.26 Z"
         style="fill:none; stroke-width:0.6667; fill-rule:evenodd;"
         id="path30" />
    </g>
    <g
       style="text-rendering:optimizeSpeed; shape-rendering:crispEdges; color-interpolation:sRGB; color-rendering:optimizeSpeed; image-rendering:optimizeSpeed;"
       id="g31">
      <path
         style="stroke:none;"
         d="M866.99 386.26 L853.6566 381.26 L858.3233 386.26 L853.6566 391.26 Z"
         id="path31" />
    </g>
    <g
       style="stroke-linecap:butt; text-rendering:geometricPrecision; color-rendering:optimizeQuality; image-rendering:optimizeQuality; stroke-linejoin:round; color-interpolation:linearRGB; stroke-width:1.6;"
       id="g33">
      <line
         y2="41.2167"
         style="fill:none;"
         x1="124.54"
         x2="124.54"
         y1="407.96"
         id="line31" />
      <path
         d="M119.54 45.8833 L124.54 32.55 L124.54 41.2167 L119.54 45.8833 Z"
         style="fill:none; stroke-width:0.6667; fill-rule:evenodd;"
         id="path32" />
      <path
         d="M124.54 32.55 L129.54 45.8833 L124.54 41.2167 L124.54 32.55 Z"
         style="fill:none; stroke-width:0.6667; fill-rule:evenodd;"
         id="path33" />
    </g>
    <g
       style="text-rendering:optimizeSpeed; shape-rendering:crispEdges; color-interpolation:sRGB; color-rendering:optimizeSpeed; image-rendering:optimizeSpeed;"
       id="g34">
      <path
         style="stroke:none;"
         d="M124.54 32.55 L119.54 45.8833 L124.54 41.2167 L129.54 45.8833 Z"
         id="path34" />
    </g>
    <g
       style="stroke-linecap:butt; text-rendering:geometricPrecision; color-rendering:optimizeQuality; image-rendering:optimizeQuality; stroke-linejoin:round; color-interpolation:linearRGB; stroke-width:1.6;"
       id="g36">
      <line
         y2="386.26"
         style="fill:none;"
         x1="105.38"
         x2="858.3233"
         y1="386.26"
         id="line34" />
      <path
         d="M853.6566 381.26 L866.99 386.26 L858.3233 386.26 L853.6566 381.26 Z"
         style="fill:none; stroke-width:0.6667; fill-rule:evenodd;"
         id="path35" />
      <path
         d="M866.99 386.26 L853.6566 391.26 L858.3233 386.26 L866.99 386.26 Z"
         style="fill:none; stroke-width:0.6667; fill-rule:evenodd;"
         id="path36" />
    </g>
    <g
       style="text-rendering:optimizeSpeed; shape-rendering:crispEdges; color-interpolation:sRGB; color-rendering:optimizeSpeed; image-rendering:optimizeSpeed;"
       id="g37">
      <path
         style="stroke:none;"
         d="M866.99 386.26 L853.6566 381.26 L858.3233 386.26 L853.6566 391.26 Z"
         id="path37" />
    </g>
    <g
       style="stroke-linecap:butt; text-rendering:geometricPrecision; color-rendering:optimizeQuality; image-rendering:optimizeQuality; stroke-linejoin:round; color-interpolation:linearRGB; stroke-width:1.6;"
       id="g39">
      <line
         y2="41.2167"
         style="fill:none;"
         x1="124.54"
         x2="124.54"
         y1="407.96"
         id="line37" />
      <path
         d="M119.54 45.8833 L124.54 32.55 L124.54 41.2167 L119.54 45.8833 Z"
         style="fill:none; stroke-width:0.6667; fill-rule:evenodd;"
         id="path38" />
      <path
         d="M124.54 32.55 L129.54 45.8833 L124.54 41.2167 L124.54 32.55 Z"
         style="fill:none; stroke-width:0.6667; fill-rule:evenodd;"
         id="path39" />
    </g>
    <g
       style="text-rendering:optimizeSpeed; shape-rendering:crispEdges; color-interpolation:sRGB; color-rendering:optimizeSpeed; image-rendering:optimizeSpeed;"
       id="g40">
      <path
         style="stroke:none;"
         d="M124.54 32.55 L119.54 45.8833 L124.54 41.2167 L129.54 45.8833 Z"
         id="path40" />
    </g>
  </g>
  <path
     style="font-style:normal;font-weight:normal;font-size:12px;font-family:Dialog;color-interpolation:auto;fill:#000000;fill-opacity:1;stroke:#000000;stroke-width:2.257;stroke-linecap:square;stroke-linejoin:miter;stroke-miterlimit:10;stroke-dasharray:none;stroke-dashoffset:0;stroke-opacity:1;marker-end:url(#DartArrow-8-1);color-rendering:auto;image-rendering:auto;shape-rendering:auto;text-rendering:auto"
     d="M 870.33124,75.011779 V 58.10625"
     id="path3-5-9" />
  <path
     style="font-style:normal;font-weight:normal;font-size:12px;font-family:Dialog;color-interpolation:auto;fill:#000000;fill-opacity:1;stroke:#000000;stroke-width:2.257;stroke-linecap:square;stroke-linejoin:miter;stroke-miterlimit:10;stroke-dasharray:none;stroke-dashoffset:0;stroke-opacity:1;marker-end:url(#DartArrow-6);color-rendering:auto;image-rendering:auto;shape-rendering:auto;text-rendering:auto"
     d="M 768.3425,75.011779 V 58.10625"
     id="path3-4" />
  <path
     style="font-style:normal;font-weight:normal;font-size:12px;font-family:Dialog;color-interpolation:auto;fill:#000000;fill-opacity:1;stroke:#000000;stroke-width:2.257;stroke-linecap:square;stroke-linejoin:miter;stroke-miterlimit:10;stroke-dasharray:none;stroke-dashoffset:0;stroke-opacity:1;marker-end:url(#DartArrow-7-1);color-rendering:auto;image-rendering:auto;shape-rendering:auto;text-rendering:auto"
     d="M 819.53124,75.011779 V 58.10625"
     id="path3-3-9" />
  <path
     style="font-style:normal;font-weight:normal;font-size:12px;font-family:Dialog;color-interpolation:auto;fill:#000000;fill-opacity:1;stroke:#000000;stroke-width:2.257;stroke-linecap:square;stroke-linejoin:miter;stroke-miterlimit:10;stroke-dasharray:none;stroke-dashoffset:0;stroke-opacity:1;marker-end:url(#DartArrow-8);color-rendering:auto;image-rendering:auto;shape-rendering:auto;text-rendering:auto"
     d="M 271.8425,75.011779 V 58.10625"
     id="path3-5" />
  <path
     style="fill:#000000;stroke-width:2.257;stroke-dasharray:none;marker-end:url(#DartArrow)"
     d="M 169.85376,75.011779 V 58.10625"
     id="path3" />
  <path
     style="font-style:normal;font-weight:normal;font-size:12px;font-family:Dialog;color-interpolation:auto;fill:#000000;fill-opacity:1;stroke:#000000;stroke-width:2.257;stroke-linecap:square;stroke-linejoin:miter;stroke-miterlimit:10;stroke-dasharray:none;stroke-dashoffset:0;stroke-opacity:1;marker-end:url(#DartArrow-7);color-rendering:auto;image-rendering:auto;shape-rendering:auto;text-rendering:auto"
     d="M 221.0425,75.011779 V 58.10625"
     id="path3-3" />
  <path
     style="font-style:normal;font-weight:normal;font-size:12px;font-family:Dialog;color-interpolation:auto;fill:#000000;fill-opacity:1;stroke:#000000;stroke-width:2.257;stroke-linecap:square;stroke-linejoin:miter;stroke-miterlimit:10;stroke-dasharray:none;stroke-dashoffset:0;stroke-opacity:1;marker-end:url(#DartArrow-8-3);color-rendering:auto;image-rendering:auto;shape-rendering:auto;text-rendering:auto"
     d="M 717.43124,75.011779 V 58.10625"
     id="path3-5-3" />
  <path
     style="font-style:normal;font-weight:normal;font-size:12px;font-family:Dialog;color-interpolation:auto;fill:#000000;fill-opacity:1;stroke:#000000;stroke-width:2.257;stroke-linecap:square;stroke-linejoin:miter;stroke-miterlimit:10;stroke-dasharray:none;stroke-dashoffset:0;stroke-opacity:1;marker-end:url(#DartArrow-1);color-rendering:auto;image-rendering:auto;shape-rendering:auto;text-rendering:auto"
     d="M 615.4425,75.011779 V 58.10625"
     id="path3-8" />
  <path
     style="font-style:normal;font-weight:normal;font-size:12px;font-family:Dialog;color-interpolation:auto;fill:#000000;fill-opacity:1;stroke:#000000;stroke-width:2.257;stroke-linecap:square;stroke-linejoin:miter;stroke-miterlimit:10;stroke-dasharray:none;stroke-dashoffset:0;stroke-opacity:1;marker-end:url(#DartArrow-7-2);color-rendering:auto;image-rendering:auto;shape-rendering:auto;text-rendering:auto"
     d="M 666.63124,75.011779 V 58.10625"
     id="path3-3-6" />
</svg>
